<?xml version="1.0" encoding="UTF-8"?>
<svg width="109px" height="109px" viewBox="0 0 109 109" version="1.1" xmlns="http://www.w3.org/2000/svg" xmlns:xlink="http://www.w3.org/1999/xlink">
    <title>0FDB46C9-8368-45E5-9BDB-8323F8452877</title>
    <g id="Page-1" stroke="none" stroke-width="1" fill="none" fill-rule="evenodd">
        <g id="Druides" transform="translate(-838.000000, -615.000000)">
            <g id="sdb" transform="translate(719.000000, 530.000000)">
                <g id="baignoire" transform="translate(119.000000, 85.000000)">
                    <rect id="Rectangle-Copy-4" stroke="#FF0041" stroke-width="0.8" x="0.4" y="0.4" width="108.2" height="108.2" rx="4"></rect>
                    <g id="Group-27" transform="translate(27.000000, 32.000000)">
                        <path d="M28.8071088,0.789513333 C28.8071088,1.11994667 28.5400211,1.38674667 28.2073193,1.38674667 C27.8753895,1.38674667 27.605214,1.11994667 27.605214,0.789513333 C27.605214,0.458313333 27.8753895,0.191513333 28.2073193,0.191513333 C28.5400211,0.191513333 28.8071088,0.458313333 28.8071088,0.789513333" id="Fill-1" fill="#FF0041"></path>
                        <path d="M28.8071088,0.789513333 C28.8071088,1.11994667 28.5400211,1.38674667 28.2073193,1.38674667 C27.8753895,1.38674667 27.605214,1.11994667 27.605214,0.789513333 C27.605214,0.458313333 27.8753895,0.191513333 28.2073193,0.191513333 C28.5400211,0.191513333 28.8071088,0.458313333 28.8071088,0.789513333 Z" id="Stroke-3" stroke="#FF0041" stroke-width="2"></path>
                        <path d="M23.6795649,7.99871 C23.6795649,8.32914333 23.4117053,8.59594333 23.0790035,8.59594333 C22.7470737,8.59594333 22.4768982,8.32914333 22.4768982,7.99871 C22.4768982,7.66751 22.7470737,7.40071 23.0790035,7.40071 C23.4117053,7.40071 23.6795649,7.66751 23.6795649,7.99871" id="Fill-5" fill="#FF0041"></path>
                        <path d="M23.6795649,7.99871 C23.6795649,8.32914333 23.4117053,8.59594333 23.0790035,8.59594333 C22.7470737,8.59594333 22.4768982,8.32914333 22.4768982,7.99871 C22.4768982,7.66751 22.7470737,7.40071 23.0790035,7.40071 C23.4117053,7.40071 23.6795649,7.66751 23.6795649,7.99871 Z" id="Stroke-7" stroke="#FF0041" stroke-width="2"></path>
                        <line x1="9.77425263" y1="40.8609567" x2="7.58660351" y2="45.3643567" id="Stroke-9" stroke="#FF0041" stroke-width="2" stroke-linecap="round"></line>
                        <line x1="44.5351789" y1="40.8609567" x2="46.7228281" y2="45.3643567" id="Stroke-11" stroke="#FF0041" stroke-width="2" stroke-linecap="round"></line>
                        <path d="M50.2131088,27.1032767 L50.2131088,30.6015767 C50.2131088,36.9265767 45.0025825,42.1015767 38.6341614,42.1015767 L15.6769684,42.1015767 C9.30854737,42.1015767 4.09802105,36.9265767 4.09802105,30.6015767 L4.09802105,27.1032767" id="Stroke-13" stroke="#FF0041" stroke-width="2"></path>
                        <path d="M24.9482316,18.1880933 L51.8129333,18.1880933 C53.0804421,18.1880933 54.1179158,19.2476267 54.1179158,20.53946 L54.1179158,20.9319933 C54.1179158,22.22536 53.0804421,23.28336 51.8129333,23.28336 L24.6911789,23.28336" id="Stroke-15" stroke="#FF0041" stroke-width="2" stroke-linejoin="round"></path>
                        <path d="M10.0245123,23.2830533 L2.49819649,23.2830533 C1.22991579,23.2830533 0.193214035,22.2250533 0.193214035,20.9324533 L0.193214035,20.53992 C0.193214035,19.24732 1.22991579,18.1877867 2.49819649,18.1877867 L10.0885825,18.1877867" id="Stroke-17" stroke="#FF0041" stroke-width="2" stroke-linejoin="round"></path>
                        <path d="M42.9656912,11.2836467 C42.9656912,9.08331333 44.574393,7.28318 46.5404982,7.28318 C48.5073754,7.28318 50.1153053,9.08331333 50.1153053,11.2836467 L50.1153053,17.7949467" id="Stroke-19" stroke="#FF0041" stroke-width="2" stroke-linecap="round" stroke-linejoin="round"></path>
                        <path d="M24.6595298,16.01881 L24.6595298,31.8811433 L13.7282316,31.8811433 L13.7282316,18.0765433 C13.7282316,16.8222767 14.7610737,15.79571 16.0231789,15.79571 L23.8374246,15.79571 C24.8988281,15.79571 26.5360912,15.8217767 26.5360912,18.0550767" id="Stroke-21" stroke="#FF0041" stroke-width="2" stroke-linecap="round" stroke-linejoin="round"></path>
                        <line x1="13.9534807" y1="27.3581933" x2="24.4231649" y2="27.3581933" id="Stroke-23" stroke="#FF0041" stroke-width="2" stroke-linecap="round" stroke-linejoin="round"></line>
                        <path d="M34.5348281,11.2663967 C33.6162316,12.5635967 31.8137754,12.87563 30.5061263,11.9632967 C29.200793,11.05173 28.8866175,9.26079667 29.805214,7.96206333 C30.7238105,6.66639667 32.5262667,6.35436333 33.8323719,7.26593 C35.1392491,8.17826333 35.4526526,9.96996333 34.5348281,11.2663967 Z" id="Stroke-25" stroke="#FF0041" stroke-width="2"></path>
                    </g>
                </g>
            </g>
        </g>
    </g>
</svg>