<?xml version="1.0" encoding="UTF-8"?>
<svg width="109px" height="109px" viewBox="0 0 109 109" version="1.1" xmlns="http://www.w3.org/2000/svg" xmlns:xlink="http://www.w3.org/1999/xlink">
    <title>C4482C85-9F96-4F0A-B3E6-367E3556A8A6</title>
    <g id="Page-1" stroke="none" stroke-width="1" fill="none" fill-rule="evenodd">
        <g id="Druides" transform="translate(-719.000000, -615.000000)">
            <g id="sdb" transform="translate(719.000000, 530.000000)">
                <g id="douche" transform="translate(0.000000, 85.000000)">
                    <rect id="Rectangle-Copy-3" stroke="#FF0041" stroke-width="0.8" x="0.4" y="0.4" width="108.2" height="108.2" rx="4"></rect>
                    <g id="Group-55" transform="translate(36.000000, 34.000000)">
                        <path d="M16.7743979,9.28039636 C8.41862947,9.28039636 1.64724,14.0935964 1.64724,20.0316327 L31.9007768,20.0316327 C31.9007768,14.0935964 25.1286084,9.28039636 16.7743979,9.28039636 Z" id="Stroke-1" stroke="#FF0041" stroke-width="2" stroke-linecap="round" stroke-linejoin="round"></path>
                        <line x1="0.194736842" y1="24.3834436" x2="33.3529684" y2="24.3834436" id="Stroke-3" stroke="#FF0041" stroke-width="2" stroke-linecap="round"></line>
                        <path d="M36.9238968,0.190909091 L21.0902337,0.190909091 C18.7043179,0.190909091 16.7522758,2.10458182 16.7522758,4.4436 L16.7522758,9.13232727" id="Stroke-5" stroke="#FF0041" stroke-width="2" stroke-linecap="round"></path>
                        <path d="M6.92951579,30.5220109 C6.92951579,30.8511382 6.65922105,31.1168836 6.32349474,31.1168836 C5.98854737,31.1168836 5.71591579,30.8511382 5.71591579,30.5220109 C5.71591579,30.19212 5.98854737,29.9263745 6.32349474,29.9263745 C6.65922105,29.9263745 6.92951579,30.19212 6.92951579,30.5220109" id="Fill-7" fill="#FF0041"></path>
                        <path d="M6.92951579,30.5220109 C6.92951579,30.8511382 6.65922105,31.1168836 6.32349474,31.1168836 C5.98854737,31.1168836 5.71591579,30.8511382 5.71591579,30.5220109 C5.71591579,30.19212 5.98854737,29.9263745 6.32349474,29.9263745 C6.65922105,29.9263745 6.92951579,30.19212 6.92951579,30.5220109 Z" id="Stroke-9" stroke="#FF0041" stroke-width="2"></path>
                        <path d="M13.8970442,30.5220109 C13.8970442,30.8511382 13.6267495,31.1168836 13.2910232,31.1168836 C12.9560758,31.1168836 12.6834442,30.8511382 12.6834442,30.5220109 C12.6834442,30.19212 12.9560758,29.9263745 13.2910232,29.9263745 C13.6267495,29.9263745 13.8970442,30.19212 13.8970442,30.5220109" id="Fill-11" fill="#FF0041"></path>
                        <path d="M13.8970442,30.5220109 C13.8970442,30.8511382 13.6267495,31.1168836 13.2910232,31.1168836 C12.9560758,31.1168836 12.6834442,30.8511382 12.6834442,30.5220109 C12.6834442,30.19212 12.9560758,29.9263745 13.2910232,29.9263745 C13.6267495,29.9263745 13.8970442,30.19212 13.8970442,30.5220109 Z" id="Stroke-13" stroke="#FF0041" stroke-width="2"></path>
                        <path d="M20.8642611,30.5220109 C20.8642611,30.8511382 20.5939663,31.1168836 20.25824,31.1168836 C19.9232926,31.1168836 19.6506611,30.8511382 19.6506611,30.5220109 C19.6506611,30.19212 19.9232926,29.9263745 20.25824,29.9263745 C20.5939663,29.9263745 20.8642611,30.19212 20.8642611,30.5220109" id="Fill-15" fill="#FF0041"></path>
                        <path d="M20.8642611,30.5220109 C20.8642611,30.8511382 20.5939663,31.1168836 20.25824,31.1168836 C19.9232926,31.1168836 19.6506611,30.8511382 19.6506611,30.5220109 C19.6506611,30.19212 19.9232926,29.9263745 20.25824,29.9263745 C20.5939663,29.9263745 20.8642611,30.19212 20.8642611,30.5220109 Z" id="Stroke-17" stroke="#FF0041" stroke-width="2"></path>
                        <path d="M27.8317895,30.5220109 C27.8317895,30.8511382 27.5614947,31.1168836 27.2257684,31.1168836 C26.8908211,31.1168836 26.6181895,30.8511382 26.6181895,30.5220109 C26.6181895,30.19212 26.8908211,29.9263745 27.2257684,29.9263745 C27.5614947,29.9263745 27.8317895,30.19212 27.8317895,30.5220109" id="Fill-19" fill="#FF0041"></path>
                        <path d="M27.8317895,30.5220109 C27.8317895,30.8511382 27.5614947,31.1168836 27.2257684,31.1168836 C26.8908211,31.1168836 26.6181895,30.8511382 26.6181895,30.5220109 C26.6181895,30.19212 26.8908211,29.9263745 27.2257684,29.9263745 C27.5614947,29.9263745 27.8317895,30.19212 27.8317895,30.5220109 Z" id="Stroke-21" stroke="#FF0041" stroke-width="2"></path>
                        <path d="M6.92951579,35.8383709 C6.92951579,36.1674982 6.65922105,36.4332436 6.32349474,36.4332436 C5.98854737,36.4332436 5.71591579,36.1674982 5.71591579,35.8383709 C5.71591579,35.50848 5.98854737,35.2427345 6.32349474,35.2427345 C6.65922105,35.2427345 6.92951579,35.50848 6.92951579,35.8383709" id="Fill-23" fill="#FF0041"></path>
                        <path d="M6.92951579,35.8383709 C6.92951579,36.1674982 6.65922105,36.4332436 6.32349474,36.4332436 C5.98854737,36.4332436 5.71591579,36.1674982 5.71591579,35.8383709 C5.71591579,35.50848 5.98854737,35.2427345 6.32349474,35.2427345 C6.65922105,35.2427345 6.92951579,35.50848 6.92951579,35.8383709 Z" id="Stroke-25" stroke="#FF0041" stroke-width="2"></path>
                        <path d="M13.8970442,35.8383709 C13.8970442,36.1674982 13.6267495,36.4332436 13.2910232,36.4332436 C12.9560758,36.4332436 12.6834442,36.1674982 12.6834442,35.8383709 C12.6834442,35.50848 12.9560758,35.2427345 13.2910232,35.2427345 C13.6267495,35.2427345 13.8970442,35.50848 13.8970442,35.8383709" id="Fill-27" fill="#FF0041"></path>
                        <path d="M13.8970442,35.8383709 C13.8970442,36.1674982 13.6267495,36.4332436 13.2910232,36.4332436 C12.9560758,36.4332436 12.6834442,36.1674982 12.6834442,35.8383709 C12.6834442,35.50848 12.9560758,35.2427345 13.2910232,35.2427345 C13.6267495,35.2427345 13.8970442,35.50848 13.8970442,35.8383709 Z" id="Stroke-29" stroke="#FF0041" stroke-width="2"></path>
                        <path d="M20.8642611,35.8383709 C20.8642611,36.1674982 20.5939663,36.4332436 20.25824,36.4332436 C19.9232926,36.4332436 19.6506611,36.1674982 19.6506611,35.8383709 C19.6506611,35.50848 19.9232926,35.2427345 20.25824,35.2427345 C20.5939663,35.2427345 20.8642611,35.50848 20.8642611,35.8383709" id="Fill-31" fill="#FF0041"></path>
                        <path d="M20.8642611,35.8383709 C20.8642611,36.1674982 20.5939663,36.4332436 20.25824,36.4332436 C19.9232926,36.4332436 19.6506611,36.1674982 19.6506611,35.8383709 C19.6506611,35.50848 19.9232926,35.2427345 20.25824,35.2427345 C20.5939663,35.2427345 20.8642611,35.50848 20.8642611,35.8383709 Z" id="Stroke-33" stroke="#FF0041" stroke-width="2"></path>
                        <path d="M27.8317895,35.8383709 C27.8317895,36.1674982 27.5614947,36.4332436 27.2257684,36.4332436 C26.8908211,36.4332436 26.6181895,36.1674982 26.6181895,35.8383709 C26.6181895,35.50848 26.8908211,35.2427345 27.2257684,35.2427345 C27.5614947,35.2427345 27.8317895,35.50848 27.8317895,35.8383709" id="Fill-35" fill="#FF0041"></path>
                        <path d="M27.8317895,35.8383709 C27.8317895,36.1674982 27.5614947,36.4332436 27.2257684,36.4332436 C26.8908211,36.4332436 26.6181895,36.1674982 26.6181895,35.8383709 C26.6181895,35.50848 26.8908211,35.2427345 27.2257684,35.2427345 C27.5614947,35.2427345 27.8317895,35.50848 27.8317895,35.8383709 Z" id="Stroke-37" stroke="#FF0041" stroke-width="2"></path>
                        <path d="M6.92951579,41.1543491 C6.92951579,41.4834764 6.65922105,41.7492218 6.32349474,41.7492218 C5.98854737,41.7492218 5.71591579,41.4834764 5.71591579,41.1543491 C5.71591579,40.8244582 5.98854737,40.5587127 6.32349474,40.5587127 C6.65922105,40.5587127 6.92951579,40.8244582 6.92951579,41.1543491" id="Fill-39" fill="#FF0041"></path>
                        <path d="M6.92951579,41.1543491 C6.92951579,41.4834764 6.65922105,41.7492218 6.32349474,41.7492218 C5.98854737,41.7492218 5.71591579,41.4834764 5.71591579,41.1543491 C5.71591579,40.8244582 5.98854737,40.5587127 6.32349474,40.5587127 C6.65922105,40.5587127 6.92951579,40.8244582 6.92951579,41.1543491 Z" id="Stroke-41" stroke="#FF0041" stroke-width="2"></path>
                        <path d="M13.8970442,41.1543491 C13.8970442,41.4834764 13.6267495,41.7492218 13.2910232,41.7492218 C12.9560758,41.7492218 12.6834442,41.4834764 12.6834442,41.1543491 C12.6834442,40.8244582 12.9560758,40.5587127 13.2910232,40.5587127 C13.6267495,40.5587127 13.8970442,40.8244582 13.8970442,41.1543491" id="Fill-43" fill="#FF0041"></path>
                        <path d="M13.8970442,41.1543491 C13.8970442,41.4834764 13.6267495,41.7492218 13.2910232,41.7492218 C12.9560758,41.7492218 12.6834442,41.4834764 12.6834442,41.1543491 C12.6834442,40.8244582 12.9560758,40.5587127 13.2910232,40.5587127 C13.6267495,40.5587127 13.8970442,40.8244582 13.8970442,41.1543491 Z" id="Stroke-45" stroke="#FF0041" stroke-width="2"></path>
                        <path d="M20.8642611,41.1543491 C20.8642611,41.4834764 20.5939663,41.7492218 20.25824,41.7492218 C19.9232926,41.7492218 19.6506611,41.4834764 19.6506611,41.1543491 C19.6506611,40.8244582 19.9232926,40.5587127 20.25824,40.5587127 C20.5939663,40.5587127 20.8642611,40.8244582 20.8642611,41.1543491" id="Fill-47" fill="#FF0041"></path>
                        <path d="M20.8642611,41.1543491 C20.8642611,41.4834764 20.5939663,41.7492218 20.25824,41.7492218 C19.9232926,41.7492218 19.6506611,41.4834764 19.6506611,41.1543491 C19.6506611,40.8244582 19.9232926,40.5587127 20.25824,40.5587127 C20.5939663,40.5587127 20.8642611,40.8244582 20.8642611,41.1543491 Z" id="Stroke-49" stroke="#FF0041" stroke-width="2"></path>
                        <path d="M27.8317895,41.1543491 C27.8317895,41.4834764 27.5614947,41.7492218 27.2257684,41.7492218 C26.8908211,41.7492218 26.6181895,41.4834764 26.6181895,41.1543491 C26.6181895,40.8244582 26.8908211,40.5587127 27.2257684,40.5587127 C27.5614947,40.5587127 27.8317895,40.8244582 27.8317895,41.1543491" id="Fill-51" fill="#FF0041"></path>
                        <path d="M27.8317895,41.1543491 C27.8317895,41.4834764 27.5614947,41.7492218 27.2257684,41.7492218 C26.8908211,41.7492218 26.6181895,41.4834764 26.6181895,41.1543491 C26.6181895,40.8244582 26.8908211,40.5587127 27.2257684,40.5587127 C27.5614947,40.5587127 27.8317895,40.8244582 27.8317895,41.1543491 Z" id="Stroke-53" stroke="#FF0041" stroke-width="2"></path>
                    </g>
                </g>
            </g>
        </g>
    </g>
</svg>