<?xml version="1.0" encoding="UTF-8"?>
<svg width="37px" height="31px" viewBox="0 0 37 31" version="1.1" xmlns="http://www.w3.org/2000/svg" xmlns:xlink="http://www.w3.org/1999/xlink">
    <title>14EF8D5E-9227-41A5-A52D-A2205E600434</title>
    <g id="Page-1" stroke="none" stroke-width="1" fill="none" fill-rule="evenodd">
        <g id="texte" transform="translate(-1363.000000, -39.000000)" fill="#FFFFFF">
            <path d="M1365.58865,70 L1388.41135,70 C1389.84096,70 1391,68.880673 1391,67.500053 C1391,66.119327 1389.84096,65 1388.41135,65 L1365.58865,65 C1364.15893,65 1363,66.119327 1363,67.500053 C1363,68.880673 1364.15893,70 1365.58865,70 M1366.42071,57 L1396.57929,57 C1398.46841,57 1400,55.880673 1400,54.500053 C1400,53.119327 1398.46841,52 1396.57929,52 L1366.42071,52 C1364.53144,52 1363,53.119327 1363,54.500053 C1363,55.880673 1364.53144,57 1366.42071,57 M1363,41.499947 L1363,41.499947 C1363,42.880673 1364.53144,44 1366.42071,44 L1396.57929,44 C1398.46841,44 1400,42.880673 1400,41.499947 C1400,40.1192209 1398.46841,39 1396.57929,39 L1366.42071,39 C1364.53144,39 1363,40.1192209 1363,41.499947" id="Fill-1"></path>
        </g>
    </g>
</svg>
