<?xml version="1.0" encoding="UTF-8"?>
<svg width="46px" height="244px" viewBox="0 0 46 244" version="1.1" xmlns="http://www.w3.org/2000/svg" xmlns:xlink="http://www.w3.org/1999/xlink">
    <title>A1DA94D7-ECF1-4E7E-809E-7AB9E1BA3377</title>
    <g id="Page-1" stroke="none" stroke-width="1" fill="none" fill-rule="evenodd">
        <g id="gîtes" transform="translate(-510.000000, -759.000000)" fill="#FF0041">
            <g id="grande_fleche_rouge" transform="translate(510.000000, 759.000000)">
                <rect id="Rectangle" x="21" y="0" width="4" height="125" rx="2"></rect>
                <g id="Group" transform="translate(0.000000, 130.000000)">
                    <path d="M0.642244293,89.6374839 L0.642244293,89.6374839 C1.49857002,88.7879093 2.88691002,88.7879093 3.74303642,89.6374839 L20.8073596,106.571217 L20.8073596,29.1758605 C20.8073596,27.9741921 21.7890645,27 23,27 L23.0001993,27 C24.2109355,27 25.1926404,27.9741921 25.1926404,29.1758605 L25.1926404,106.571217 L42.2567643,89.6374839 C43.11309,88.7877115 44.50143,88.7877115 45.3577557,89.6374839 C46.2140814,90.4872563 46.2140814,91.8649716 45.3577557,92.714744 L24.5503961,113.362671 C23.6940703,114.212443 22.3059297,114.212443 21.4496039,113.362671 L0.642244293,92.714744 C-0.214081431,91.8649716 -0.214081431,90.4872563 0.642244293,89.6374839" id="Fill-1"></path>
                    <circle id="Oval" cx="23" cy="20" r="2"></circle>
                    <circle id="Oval-Copy" cx="23" cy="11" r="2"></circle>
                    <circle id="Oval-Copy-2" cx="23" cy="2" r="2"></circle>
                </g>
            </g>
        </g>
    </g>
</svg>