<?xml version="1.0" encoding="UTF-8"?>
<svg width="109px" height="109px" viewBox="0 0 109 109" version="1.1" xmlns="http://www.w3.org/2000/svg" xmlns:xlink="http://www.w3.org/1999/xlink">
    <title>B0834CD3-EF78-49C5-8F0E-D253DA3FA54C</title>
    <g id="Page-1" stroke="none" stroke-width="1" fill="none" fill-rule="evenodd">
        <g id="Logis" transform="translate(-957.000000, -381.000000)" stroke="#FF0041">
            <g id="chambres" transform="translate(719.000000, 296.000000)">
                <g id="lit2places" transform="translate(238.000000, 85.000000)">
                    <rect id="Rectangle" stroke-width="0.77" x="0.385" y="0.385" width="108.23" height="108.23" rx="3.85"></rect>
                    <g id="Group-11" transform="translate(29.000000, 30.000000)" stroke-width="1.925">
                        <path d="M3.90923077,18.48 L3.90923077,7.11972477 C3.90923077,3.20412844 6.31335398,0 9.2529892,0 L41.5677682,0 C44.506646,0 46.9107692,3.20412844 46.9107692,7.11972477 L46.9107692,18.48" id="Stroke-1"></path>
                        <path d="M0,49.28 L0,29.6064384 C0,26.8753408 1.78467646,24.64 3.9651608,24.64 L46.8548392,24.64 C49.0353235,24.64 50.82,26.8753408 50.82,29.6064384 L50.82,49.28" id="Stroke-3"></path>
                        <path d="M11.7276923,17.71 L11.7276923,10.5504361 C11.7276923,8.98330916 12.6228136,7.7 13.7159007,7.7 L19.9028263,7.7 C20.996571,7.7 21.8916923,8.98330916 21.8916923,10.5504361 L21.8916923,17.71" id="Stroke-5"></path>
                        <path d="M28.9283077,17.71 L28.9283077,10.5504361 C28.9283077,8.98330916 29.823429,7.7 30.9165161,7.7 L37.1034416,7.7 C38.1971864,7.7 39.0923077,8.98330916 39.0923077,10.5504361 L39.0923077,17.71" id="Stroke-7"></path>
                        <line x1="2.34553846" y1="40.425" x2="50.82" y2="40.425" id="Stroke-9"></line>
                    </g>
                </g>
            </g>
        </g>
    </g>
</svg>