<?xml version="1.0" encoding="UTF-8"?>
<svg width="890px" height="202px" viewBox="0 0 890 202" version="1.1" xmlns="http://www.w3.org/2000/svg" xmlns:xlink="http://www.w3.org/1999/xlink">
    <title>D7692215-FA86-4FF8-8AA4-7F0577714667</title>
    <defs>
        <path d="M24.954834,157.027344 C26.9649251,157.027344 28.149821,155.80013 28.5095215,153.345703 C34.0108236,97.8883464 36.7614746,64.5843099 36.7614746,53.4335938 C36.6768392,49.7942708 36.5075684,47.297526 36.2536621,45.9433594 C35.5342611,42.3886719 34.095459,40.6113281 31.9372559,40.6113281 L31.9372559,40.6113281 L31.6833496,40.6113281 C31.048584,40.6113281 30.4561361,40.7382812 29.9060059,40.9921875 C27.9593913,42.2405599 26.986084,43.5524089 26.986084,44.9277344 L26.986084,44.9277344 L26.986084,45.6894531 C27.4727376,47.5514323 28.3614095,48.4824219 29.6520996,48.4824219 C29.9906413,48.4824219 30.1599121,50.0481771 30.1599121,53.1796875 L30.1590742,53.547312 C30.1037734,65.8915356 27.311084,99.2846191 21.7810059,153.726562 C21.7810059,153.790039 21.8233236,154.043945 21.907959,154.488281 C22.5427246,156.18099 23.5583496,157.027344 24.954834,157.027344 Z M4.38842773,175.435547 L27.1130371,169.595703 C56.6719564,162.063151 79.6927897,158.296875 96.1755371,158.296875 C102.861735,158.529622 106.204834,158.995117 106.204834,159.693359 C106.204834,161.661133 107.262777,162.803711 109.378662,163.121094 C111.833089,162.740234 113.060303,161.34375 113.060303,158.931641 L113.060303,158.931641 L113.060303,158.550781 C113.060303,158.042969 112.93335,157.408203 112.679443,156.646484 C111.113688,153.430339 106.289469,151.822266 98.2067871,151.822266 L98.2067871,151.822266 L94.6520996,151.822266 C87.0772298,151.822266 77.6826986,152.66862 66.4685059,154.361328 C44.9499512,158.339193 24.2565918,163.121094 4.38842773,168.707031 C2.1879069,169.257161 1.08764648,170.272786 1.08764648,171.753906 L1.08764648,171.753906 L1.08764648,172.515625 C1.08764648,174.060221 2.1879069,175.033529 4.38842773,175.435547 L4.38842773,175.435547 Z M71.2927246,134.810547 C78.8041178,134.810547 87.6062012,129.859375 97.6989746,119.957031 C99.8994954,118.13737 100.999756,116.529297 100.999756,115.132812 L100.999756,115.132812 L100.999756,114.878906 C100.999756,113.376628 100.026449,112.40332 98.079834,111.958984 L98.079834,111.958984 L97.8259277,111.958984 C96.4717611,111.958984 95.0752767,112.889974 93.6364746,114.751953 C84.4112142,123.723307 77.0056152,128.208984 71.4196777,128.208984 C70.7425944,128.208984 70.4040527,128.166667 70.4040527,128.082031 C68.2246908,128.082031 66.8705241,127.151042 66.3415527,125.289062 L66.3415527,125.289062 L66.3415527,125.035156 C66.9974772,125.627604 67.6322428,125.923828 68.2458496,125.923828 L68.2458496,125.923828 L69.0075684,125.923828 C69.8116048,125.923828 71.2927246,125.119792 73.4509277,123.511719 C79.7139486,119.343424 82.845459,115.788737 82.845459,112.847656 C82.845459,112.255208 82.7608236,111.789714 82.5915527,111.451172 C81.7663574,108.996745 79.4388835,107.769531 75.6091309,107.769531 C72.244873,107.769531 69.1556803,108.869792 66.3415527,111.070312 C61.8558757,115.005859 59.6130371,119.406901 59.6130371,124.273438 C59.6130371,125.542969 59.8669434,126.854818 60.3747559,128.208984 C62.2790527,132.610026 65.9183757,134.810547 71.2927246,134.810547 Z M67.8649902,119.322266 L67.7380371,119.322266 C68.0765788,118.899089 68.2458496,118.602865 68.2458496,118.433594 C70.6368001,115.809896 72.6257324,114.498047 74.2126465,114.498047 L74.2126465,114.498047 L74.3395996,114.498047 C72.0121257,116.508138 69.8539225,118.116211 67.8649902,119.322266 L67.8649902,119.322266 Z M99.1589355,140.555176 C101.274821,140.555176 104.448649,138.735514 108.68042,135.096191 C111.727295,132.070475 113.250732,129.065918 113.250732,126.08252 C113.250732,121.723796 110.500081,117.830566 104.998779,114.402832 C102.967529,113.493001 101.951904,112.350423 101.951904,110.975098 C101.951904,110.784668 101.994222,110.319173 102.078857,109.578613 C102.755941,107.97054 103.983154,107.166504 105.760498,107.166504 C106.077881,107.166504 107.178141,107.462728 109.061279,108.055176 L109.061279,108.055176 L110.076904,108.055176 C111.769613,107.441569 112.615967,106.510579 112.615967,105.262207 L112.615967,105.262207 L112.615967,104.500488 C112.615967,103.992676 112.404378,103.442546 111.981201,102.850098 C110.373128,101.32666 108.299561,100.564941 105.760498,100.564941 C104.829508,100.564941 103.729248,100.734212 102.459717,101.072754 C97.7201335,102.892415 95.3503418,106.108561 95.3503418,110.721191 C95.3503418,114.06429 96.7891439,116.814941 99.666748,118.973145 C104.321696,121.554525 106.64917,123.839681 106.64917,125.828613 C106.64917,127.73291 104.956462,129.933431 101.571045,132.430176 C100.767008,132.17627 100.259196,132.049316 100.047607,132.049316 L100.047607,132.049316 L99.7937012,132.049316 C98.8838704,132.049316 98.1644694,132.303223 97.635498,132.811035 C96.196696,134.419108 95.4772949,135.85791 95.4772949,137.127441 C95.5619303,137.317871 95.6465658,137.69873 95.7312012,138.27002 C96.3659668,139.793457 97.4662272,140.555176 99.0319824,140.555176 L99.0319824,140.555176 L99.1589355,140.555176 Z M197.611084,195.240234 C206.392008,195.240234 214.347738,189.23112 221.478271,177.212891 C224.779053,171.563477 227.910563,163.777018 230.872803,153.853516 C232.39624,148.331055 233.708089,141.814128 234.80835,134.302734 C242.065837,129.499674 249.725342,124.929362 257.786865,120.591797 C261.426188,119.152995 263.24585,117.58724 263.24585,115.894531 C263.24585,113.969076 262.103271,112.868815 259.818115,112.59375 L259.818115,112.59375 L259.691162,112.59375 C258.865967,112.59375 255.692139,114.159505 250.169678,117.291016 C245.557048,119.78776 240.690511,122.665365 235.570068,125.923828 C235.654704,124.527344 235.697021,123.469401 235.697021,122.75 L235.697021,122.75 L235.697021,122.623047 C235.697021,120.591797 235.612386,118.602865 235.443115,116.65625 C234.681396,110.477865 232.523193,107.388672 228.968506,107.388672 C226.239014,107.388672 223.36141,109.08138 220.335693,112.466797 C217.225342,116.127279 214.136149,120.274414 211.068115,124.908203 C200.08667,142.004557 191.834717,150.552734 186.312256,150.552734 C184.19637,150.552734 182.122803,150.25651 180.091553,149.664062 C173.913167,147.230794 170.823975,141.517904 170.823975,132.525391 L170.823975,132.525391 L170.823975,131.255859 C170.823975,120.71875 174.547933,107.896484 181.99585,92.7890625 C185.423584,85.8489583 189.909261,78.9511719 195.452881,72.0957031 C204.805094,61.1777344 213.141683,55.71875 220.462646,55.71875 C221.605225,55.71875 222.663167,55.9303385 223.636475,56.3535156 C226.006266,57.9192708 227.191162,61.3046875 227.191162,66.5097656 C227.106527,68.4352214 226.979574,70.2548828 226.810303,71.96875 C226.133219,76.7294922 225.583089,79.4801432 225.159912,80.2207031 C223.763428,80.2207031 222.832438,81.1516927 222.366943,83.0136719 L222.366943,83.0136719 L222.366943,83.9023438 C223.340251,87.4570312 224.863688,89.234375 226.937256,89.234375 C228.100993,89.234375 229.158936,88.6419271 230.111084,87.4570312 C232.480876,79.7763672 233.665771,73.1748047 233.665771,67.6523438 L233.665771,67.6523438 L233.665771,65.3671875 C233.665771,63.0820312 233.369548,60.8391927 232.7771,58.6386719 C230.682373,52.2910156 226.704508,49.1171875 220.843506,49.1171875 C210.79305,49.1171875 200.298258,55.7610677 189.359131,69.0488281 C183.625081,76.4755859 178.885498,84.008138 175.140381,91.6464844 C167.861735,107.007812 164.222412,120.295573 164.222412,131.509766 L164.222412,131.509766 L164.222412,132.144531 C164.222412,135.741536 164.687907,139.253906 165.618896,142.681641 C169.06779,152.330078 175.880941,157.154297 186.05835,157.154297 C190.184326,157.154297 194.585368,155.080729 199.261475,150.933594 C201.673584,148.521484 204.128011,145.813151 206.624756,142.808594 C210.539144,137.370768 215.744222,129.922852 222.23999,120.464844 C224.059652,117.989258 226.006266,115.958008 228.079834,114.371094 L228.079834,114.371094 L228.33374,114.371094 C228.841553,116.423503 229.095459,118.87793 229.095459,121.734375 C229.095459,124.78125 228.926188,127.701172 228.587646,130.494141 C224.228923,133.583333 220.420329,136.503255 217.161865,139.253906 C215.553792,140.206055 211.618245,143.972331 205.355225,150.552734 C198.288167,158.76237 193.463949,165.321615 190.882568,170.230469 C187.581787,176.366536 185.931396,181.233073 185.931396,184.830078 L185.931396,184.830078 L185.931396,185.591797 C185.931396,186.26888 186.016032,187.030599 186.185303,187.876953 C187.518311,192.785807 191.072998,195.240234 196.849365,195.240234 L196.849365,195.240234 L197.611084,195.240234 Z M197.484131,188.638672 L196.468506,188.638672 C193.844808,188.638672 192.532959,187.580729 192.532959,185.464844 L192.532959,185.464844 L192.532959,185.083984 C192.532959,182.735352 193.633219,179.349935 195.83374,174.927734 C199.071045,168.516602 204.826253,160.857096 213.099365,151.949219 C219.066162,146.067057 223.805745,141.96224 227.318115,139.634766 L227.318115,139.634766 L226.68335,142.935547 C224.779053,151.441406 222.874756,158.085286 220.970459,162.867188 C213.945719,180.048177 206.116943,188.638672 197.484131,188.638672 L197.484131,188.638672 Z M260.294189,78.0307617 C260.780843,78.0307617 261.415609,77.7768555 262.198486,77.269043 C262.812093,76.4861654 266.112874,70.8579102 272.10083,60.3842773 L272.10083,60.3842773 L272.227783,60.3842773 C275.782471,68.4034831 277.686768,72.6352539 277.940674,73.0795898 C278.93514,76.2957357 280.246989,77.9038086 281.876221,77.9038086 L281.876221,77.9038086 L282.891846,77.9038086 C284.584554,77.2902018 285.430908,76.2745768 285.430908,74.8569336 L285.430908,74.8569336 L285.430908,74.3491211 C285.430908,73.8201497 282.680257,67.4724935 277.178955,55.3061523 C275.994059,51.6668294 274.597575,49.847168 272.989502,49.847168 L272.989502,49.847168 L272.227783,49.847168 C271.762288,49.847168 271.127523,50.1010742 270.323486,50.6088867 C269.32902,52.0265299 266.155192,57.4431966 260.802002,66.8588867 C258.093669,71.175293 256.739502,73.7143555 256.739502,74.4760742 L256.739502,74.4760742 L256.739502,75.4916992 C257.33195,77.1844076 258.262939,78.0307617 259.532471,78.0307617 L259.532471,78.0307617 L260.294189,78.0307617 Z M261.405029,133.541016 C263.60555,133.160156 264.705811,132.102214 264.705811,130.367188 L264.705811,130.367188 L264.705811,130.113281 C264.197998,128.484049 263.944092,127.468424 263.944092,127.066406 C263.944092,123.342448 264.494222,116.994792 265.594482,108.023438 C265.128988,105.907552 264.15568,104.849609 262.674561,104.849609 L262.674561,104.849609 L261.912842,104.849609 C261.2146,104.849609 260.537516,105.188151 259.881592,105.865234 C258.929443,105.865234 258.083089,112.805339 257.342529,126.685547 C257.427165,127.55306 257.469482,128.230143 257.469482,128.716797 C257.469482,131.488607 258.781331,133.09668 261.405029,133.541016 Z M273.782959,174.166016 C274.989014,174.166016 275.962321,173.404297 276.702881,171.880859 C279.241943,135.022135 281.611735,107.261719 283.812256,88.5996094 C298.750407,87.5839844 323.336995,86.3567708 357.572021,84.9179688 C358.312581,85.3411458 358.989665,85.5950521 359.603271,85.6796875 C362.650146,85.1295573 364.173584,83.8177083 364.173584,81.7441406 C364.173584,80.1149089 363.200277,78.9723307 361.253662,78.3164062 L361.253662,78.3164062 L360.999756,78.3164062 C333.302816,79.2473958 307.912191,80.4322917 284.827881,81.8710938 L284.827881,81.8710938 L284.700928,81.8710938 C284.700928,81.3632812 284.870199,80.0514323 285.20874,77.9355469 C284.806722,75.735026 283.833415,74.6347656 282.288818,74.6347656 L282.288818,74.6347656 L281.5271,74.6347656 C280.828857,74.6347656 280.151774,74.9733073 279.49585,75.6503906 C278.988037,75.6503906 278.437907,77.8932292 277.845459,82.3789062 C263.24585,83.3945312 249.281006,84.6217448 235.950928,86.0605469 C233.919678,86.6741536 232.904053,87.6051432 232.904053,88.8535156 L232.904053,88.8535156 L232.904053,90.25 C233.665771,91.8580729 234.596761,92.6621094 235.697021,92.6621094 L235.697021,92.6621094 L235.823975,92.6621094 C252.391357,91.0540365 266.144613,89.8268229 277.08374,88.9804688 C277.08374,89.4036458 277.041423,89.6152344 276.956787,89.6152344 C274.417725,113.905599 272.174886,141.073568 270.228271,171.119141 L270.228271,171.119141 L270.228271,171.373047 C270.841878,173.235026 271.857503,174.166016 273.275146,174.166016 L273.275146,174.166016 L273.782959,174.166016 Z M299.713135,134.810547 C307.224528,134.810547 316.026611,129.859375 326.119385,119.957031 C328.319906,118.13737 329.420166,116.529297 329.420166,115.132812 L329.420166,115.132812 L329.420166,114.878906 C329.420166,113.376628 328.446859,112.40332 326.500244,111.958984 L326.500244,111.958984 L326.246338,111.958984 C324.892171,111.958984 323.495687,112.889974 322.056885,114.751953 C312.831624,123.723307 305.426025,128.208984 299.840088,128.208984 C299.163005,128.208984 298.824463,128.166667 298.824463,128.082031 C296.645101,128.082031 295.290934,127.151042 294.761963,125.289062 L294.761963,125.289062 L294.761963,125.035156 C295.417887,125.627604 296.052653,125.923828 296.66626,125.923828 L296.66626,125.923828 L297.427979,125.923828 C298.232015,125.923828 299.713135,125.119792 301.871338,123.511719 C308.134359,119.343424 311.265869,115.788737 311.265869,112.847656 C311.265869,112.255208 311.181234,111.789714 311.011963,111.451172 C310.186768,108.996745 307.859294,107.769531 304.029541,107.769531 C300.665283,107.769531 297.57609,108.869792 294.761963,111.070312 C290.276286,115.005859 288.033447,119.406901 288.033447,124.273438 C288.033447,125.542969 288.287354,126.854818 288.795166,128.208984 C290.699463,132.610026 294.338786,134.810547 299.713135,134.810547 Z M296.2854,119.322266 L296.158447,119.322266 C296.496989,118.899089 296.66626,118.602865 296.66626,118.433594 C299.05721,115.809896 301.046143,114.498047 302.633057,114.498047 L302.633057,114.498047 L302.76001,114.498047 C300.432536,116.508138 298.274333,118.116211 296.2854,119.322266 L296.2854,119.322266 Z M327.579346,140.555176 C329.695231,140.555176 332.869059,138.735514 337.10083,135.096191 C340.147705,132.070475 341.671143,129.065918 341.671143,126.08252 C341.671143,121.723796 338.920492,117.830566 333.419189,114.402832 C331.387939,113.493001 330.372314,112.350423 330.372314,110.975098 C330.372314,110.784668 330.414632,110.319173 330.499268,109.578613 C331.176351,107.97054 332.403564,107.166504 334.180908,107.166504 C334.498291,107.166504 335.598551,107.462728 337.481689,108.055176 L337.481689,108.055176 L338.497314,108.055176 C340.190023,107.441569 341.036377,106.510579 341.036377,105.262207 L341.036377,105.262207 L341.036377,104.500488 C341.036377,103.992676 340.824788,103.442546 340.401611,102.850098 C338.793538,101.32666 336.719971,100.564941 334.180908,100.564941 C333.249919,100.564941 332.149658,100.734212 330.880127,101.072754 C326.140544,102.892415 323.770752,106.108561 323.770752,110.721191 C323.770752,114.06429 325.209554,116.814941 328.087158,118.973145 C332.742106,121.554525 335.06958,123.839681 335.06958,125.828613 C335.06958,127.73291 333.376872,129.933431 329.991455,132.430176 C329.187419,132.17627 328.679606,132.049316 328.468018,132.049316 L328.468018,132.049316 L328.214111,132.049316 C327.304281,132.049316 326.58488,132.303223 326.055908,132.811035 C324.617106,134.419108 323.897705,135.85791 323.897705,137.127441 C323.98234,137.317871 324.066976,137.69873 324.151611,138.27002 C324.786377,139.793457 325.886637,140.555176 327.452393,140.555176 L327.452393,140.555176 L327.579346,140.555176 Z M415.20874,166.929688 C416.309001,166.823893 416.859131,166.654622 416.859131,166.421875 C418.065186,166.421875 418.784587,164.136719 419.017334,159.566406 C422.825928,125.056315 427.100016,90.8636068 431.8396,56.9882812 C431.331787,54.8723958 430.316162,53.8144531 428.792725,53.8144531 L428.792725,53.8144531 L428.284912,53.8144531 C427.840576,53.8144531 427.248128,54.0260417 426.507568,54.4492188 C425.491943,55.570638 424.984131,57.0517578 424.984131,58.8925781 C421.027425,80.6650391 416.964925,96.5341797 412.796631,106.5 L412.796631,106.5 L411.5271,106.373047 C409.030355,106.626953 404.840902,108.658203 398.95874,112.466797 C393.372803,116.952474 390.579834,121.26888 390.579834,125.416016 C390.664469,126.389323 390.83374,127.235677 391.087646,127.955078 C392.293701,130.748047 394.53654,132.144531 397.816162,132.144531 C405.560303,132.144531 412.373454,124.738932 418.255615,109.927734 L418.255615,109.927734 L418.382568,109.927734 L418.382568,110.054688 C416.012777,127.91276 413.939209,145.855469 412.161865,163.882812 C412.161865,165.40625 413.17749,166.421875 415.20874,166.929688 Z M398.197021,125.669922 L397.054443,125.669922 C397.054443,124.379232 397.816162,122.728841 399.3396,120.71875 C402.534587,117.608398 405.877686,115.323242 409.368896,113.863281 L409.368896,113.863281 L409.49585,113.863281 C405.348714,121.734375 401.582438,125.669922 398.197021,125.669922 L398.197021,125.669922 Z M439.615479,134.810547 C447.126872,134.810547 455.928955,129.859375 466.021729,119.957031 C468.222249,118.13737 469.32251,116.529297 469.32251,115.132812 L469.32251,115.132812 L469.32251,114.878906 C469.32251,113.376628 468.349202,112.40332 466.402588,111.958984 L466.402588,111.958984 L466.148682,111.958984 C464.794515,111.958984 463.398031,112.889974 461.959229,114.751953 C452.733968,123.723307 445.328369,128.208984 439.742432,128.208984 C439.065348,128.208984 438.726807,128.166667 438.726807,128.082031 C436.547445,128.082031 435.193278,127.151042 434.664307,125.289062 L434.664307,125.289062 L434.664307,125.035156 C435.320231,125.627604 435.954997,125.923828 436.568604,125.923828 L436.568604,125.923828 L437.330322,125.923828 C438.134359,125.923828 439.615479,125.119792 441.773682,123.511719 C448.036702,119.343424 451.168213,115.788737 451.168213,112.847656 C451.168213,112.255208 451.083577,111.789714 450.914307,111.451172 C450.089111,108.996745 447.761637,107.769531 443.931885,107.769531 C440.567627,107.769531 437.478434,108.869792 434.664307,111.070312 C430.17863,115.005859 427.935791,119.406901 427.935791,124.273438 C427.935791,125.542969 428.189697,126.854818 428.69751,128.208984 C430.601807,132.610026 434.24113,134.810547 439.615479,134.810547 Z M436.187744,119.322266 L436.060791,119.322266 C436.399333,118.899089 436.568604,118.602865 436.568604,118.433594 C438.959554,115.809896 440.948486,114.498047 442.5354,114.498047 L442.5354,114.498047 L442.662354,114.498047 C440.33488,116.508138 438.176676,118.116211 436.187744,119.322266 L436.187744,119.322266 Z M467.481689,140.555176 C469.597575,140.555176 472.771403,138.735514 477.003174,135.096191 C480.050049,132.070475 481.573486,129.065918 481.573486,126.08252 C481.573486,121.723796 478.822835,117.830566 473.321533,114.402832 C471.290283,113.493001 470.274658,112.350423 470.274658,110.975098 C470.274658,110.784668 470.316976,110.319173 470.401611,109.578613 C471.078695,107.97054 472.305908,107.166504 474.083252,107.166504 C474.400635,107.166504 475.500895,107.462728 477.384033,108.055176 L477.384033,108.055176 L478.399658,108.055176 C480.092367,107.441569 480.938721,106.510579 480.938721,105.262207 L480.938721,105.262207 L480.938721,104.500488 C480.938721,103.992676 480.727132,103.442546 480.303955,102.850098 C478.695882,101.32666 476.622314,100.564941 474.083252,100.564941 C473.152262,100.564941 472.052002,100.734212 470.782471,101.072754 C466.042887,102.892415 463.673096,106.108561 463.673096,110.721191 C463.673096,114.06429 465.111898,116.814941 467.989502,118.973145 C472.64445,121.554525 474.971924,123.839681 474.971924,125.828613 C474.971924,127.73291 473.279215,129.933431 469.893799,132.430176 C469.089762,132.17627 468.58195,132.049316 468.370361,132.049316 L468.370361,132.049316 L468.116455,132.049316 C467.206624,132.049316 466.487223,132.303223 465.958252,132.811035 C464.51945,134.419108 463.800049,135.85791 463.800049,137.127441 C463.884684,137.317871 463.96932,137.69873 464.053955,138.27002 C464.688721,139.793457 465.788981,140.555176 467.354736,140.555176 L467.354736,140.555176 L467.481689,140.555176 Z M565.838623,180.894531 C566.727295,180.894531 567.573649,180.344401 568.377686,179.244141 C576.079508,151.822266 582.765706,129.266927 588.436279,111.578125 C588.647868,111.345378 590.425212,110.879883 593.768311,110.181641 C609.595133,107.388672 619.243571,105.992188 622.713623,105.992188 C621.951904,115.894531 621.571045,124.485026 621.571045,131.763672 C621.571045,141.369792 622.375081,149.240885 623.983154,155.376953 C626.860758,164.686849 631.727295,169.341797 638.582764,169.341797 L638.582764,169.341797 L639.598389,169.341797 C641.714274,168.876302 642.772217,167.902995 642.772217,166.421875 L642.772217,166.421875 L642.772217,165.660156 C642.772217,164.559896 642.010498,163.628906 640.487061,162.867188 C638.28654,162.867188 636.551514,162.528646 635.281982,161.851562 C630.542399,158.423828 628.172607,148.563802 628.172607,132.271484 L628.172607,132.271484 L628.172607,131.382812 C628.172607,123.173177 628.595785,114.498047 629.442139,105.357422 C629.865316,105.357422 631.769613,105.272786 635.155029,105.103516 C637.778727,104.913086 639.090576,103.939779 639.090576,102.183594 L639.090576,102.183594 L639.090576,101.421875 C639.090576,99.9407552 638.032633,98.9674479 635.916748,98.5019531 C635.387777,98.5019531 633.356527,98.5865885 629.822998,98.7558594 C629.822998,98.671224 629.865316,98.6289062 629.949951,98.6289062 C631.64266,78.5703125 632.489014,65.0286458 632.489014,58.0039062 C632.489014,56.2265625 632.404378,53.8144531 632.235107,50.7675781 C631.367594,41.203776 628.320719,36.421875 623.094482,36.421875 C618.926188,36.421875 614.525146,39.5110677 609.891357,45.6894531 C601.258545,57.9615885 592.456462,77.9778646 583.485107,105.738281 C572.419027,108.700521 557.819417,112.932292 539.686279,118.433594 C535.285238,118.962565 533.084717,120.401367 533.084717,122.75 C533.084717,123.278971 533.21167,123.871419 533.465576,124.527344 C534.586995,126.135417 536.956787,126.939453 540.574951,126.939453 C542.690837,126.431641 543.748779,125.500651 543.748779,124.146484 L543.748779,124.146484 L549.588623,122.369141 C563.659261,118.13737 574.069417,115.090495 580.819092,113.228516 L580.819092,113.228516 L580.946045,113.228516 C575.529378,130.705729 571.974691,142.554688 570.281982,148.775391 C566.558024,161.174479 563.849691,170.822917 562.156982,177.720703 C562.622477,179.836589 563.595785,180.894531 565.076904,180.894531 L565.076904,180.894531 L565.838623,180.894531 Z M591.102295,104.087891 L590.975342,104.087891 C598.973389,79.945638 606.675212,62.3414714 614.080811,51.2753906 C617.995199,45.7740885 620.91512,43.0234375 622.840576,43.0234375 C623.031006,43.0234375 623.200277,43.0657552 623.348389,43.1503906 C625.041097,44.9277344 625.887451,49.8365885 625.887451,57.8769531 C625.887451,65.7057292 624.998779,79.5013021 623.221436,99.2636719 C621.84611,99.4329427 620.788167,99.5175781 620.047607,99.5175781 C607.944743,100.95638 598.296305,102.479818 591.102295,104.087891 L591.102295,104.087891 Z M649.627686,134.048828 C652.822673,134.048828 655.742594,133.033203 658.387451,131.001953 C662.11141,127.214518 663.973389,122.728841 663.973389,117.544922 L663.973389,117.544922 L663.973389,117.037109 L664.100342,116.783203 C664.015706,116.783203 663.973389,116.740885 663.973389,116.65625 L663.973389,116.65625 L663.973389,115.640625 C668.75529,115.386719 674.679769,114.963542 681.746826,114.371094 C684.45516,114.07487 685.809326,112.974609 685.809326,111.070312 C685.428467,108.869792 684.370524,107.769531 682.635498,107.769531 C673.135173,108.700521 666.322021,109.166016 662.196045,109.166016 L662.196045,109.166016 L661.561279,109.166016 C660.863037,108.637044 660.016683,108.298503 659.022217,108.150391 C657.731527,108.150391 656.588949,108.700521 655.594482,109.800781 C654.875081,109.208333 654.15568,108.912109 653.436279,108.912109 C651.616618,108.912109 649.119873,110.5625 645.946045,113.863281 C642.983805,118.095052 641.502686,121.903646 641.502686,125.289062 L641.502686,125.289062 L641.502686,126.558594 C641.502686,127.404948 641.671956,128.251302 642.010498,129.097656 C643.491618,132.398438 646.03068,134.048828 649.627686,134.048828 Z M649.881592,127.574219 C648.527425,127.574219 647.850342,127.066406 647.850342,126.050781 C647.850342,122.75 649.416097,119.491536 652.547607,116.275391 C654.409587,115.280924 655.467529,114.603841 655.721436,114.244141 C656.229248,114.667318 656.525472,114.878906 656.610107,114.878906 C657.287191,115.027018 657.625732,115.450195 657.625732,116.148438 L657.625732,116.148438 L657.625732,116.275391 C657.625732,118.13737 657.414144,119.745443 656.990967,121.099609 C655.784912,125.416016 653.41512,127.574219 649.881592,127.574219 Z M678.096924,78.0307617 C678.583577,78.0307617 679.218343,77.7768555 680.001221,77.269043 C680.614827,76.4861654 683.915609,70.8579102 689.903564,60.3842773 L689.903564,60.3842773 L690.030518,60.3842773 C693.585205,68.4034831 695.489502,72.6352539 695.743408,73.0795898 C696.737874,76.2957357 698.049723,77.9038086 699.678955,77.9038086 L699.678955,77.9038086 L700.69458,77.9038086 C702.387288,77.2902018 703.233643,76.2745768 703.233643,74.8569336 L703.233643,74.8569336 L703.233643,74.3491211 C703.233643,73.8201497 700.482992,67.4724935 694.981689,55.3061523 C693.796794,51.6668294 692.400309,49.847168 690.792236,49.847168 L690.792236,49.847168 L690.030518,49.847168 C689.565023,49.847168 688.930257,50.1010742 688.126221,50.6088867 C687.131755,52.0265299 683.957926,57.4431966 678.604736,66.8588867 C675.896403,71.175293 674.542236,73.7143555 674.542236,74.4760742 L674.542236,74.4760742 L674.542236,75.4916992 C675.134684,77.1844076 676.065674,78.0307617 677.335205,78.0307617 L677.335205,78.0307617 L678.096924,78.0307617 Z M699.361572,144.427246 C700.863851,144.427246 701.837158,143.411621 702.281494,141.380371 L702.281494,141.380371 L702.281494,140.745605 C701.350505,139.074056 700.88501,136.111816 700.88501,131.858887 C701.223551,123.458822 701.477458,115.968587 701.646729,109.388184 L701.646729,109.388184 L701.646729,109.134277 C701.033122,107.272298 700.017497,106.341309 698.599854,106.341309 L698.599854,106.341309 L697.965088,106.341309 C696.991781,106.341309 696.103109,106.976074 695.299072,108.245605 C692.76001,116.053223 690.136312,122.400879 687.427979,127.288574 C686.348877,129.298665 685.121663,130.864421 683.746338,131.98584 L683.746338,131.98584 L683.619385,131.98584 C682.60376,130.69515 682.095947,128.240723 682.095947,124.622559 L682.095947,124.622559 L682.095947,122.464355 C682.095947,120.15804 682.349854,117.02653 682.857666,113.069824 C682.392171,110.953939 681.418864,109.895996 679.937744,109.895996 L679.937744,109.895996 L679.176025,109.895996 C678.308512,109.895996 677.546794,110.361491 676.890869,111.29248 C676.234945,111.29248 675.76945,115.270345 675.494385,123.226074 L675.494385,123.226074 L675.494385,124.368652 C675.494385,127.73291 675.875244,130.525879 676.636963,132.747559 C678.1604,136.725423 680.445557,138.714355 683.492432,138.714355 C687.364502,138.714355 690.961507,135.244303 694.283447,128.304199 L694.283447,128.304199 L694.4104,128.304199 L694.4104,128.431152 C694.4104,129.044759 694.368083,130.018066 694.283447,131.351074 C694.283447,134.778809 694.537354,137.69873 695.045166,140.11084 C695.679932,142.988444 696.907145,144.427246 698.726807,144.427246 L698.726807,144.427246 L699.361572,144.427246 Z M709.898682,174.166016 C711.104736,174.166016 712.078044,173.404297 712.818604,171.880859 C715.357666,135.022135 717.727458,107.261719 719.927979,88.5996094 C734.86613,87.5839844 759.452718,86.3567708 793.687744,84.9179688 C794.428304,85.3411458 795.105387,85.5950521 795.718994,85.6796875 C798.765869,85.1295573 800.289307,83.8177083 800.289307,81.7441406 C800.289307,80.1149089 799.315999,78.9723307 797.369385,78.3164062 L797.369385,78.3164062 L797.115479,78.3164062 C769.418538,79.2473958 744.027913,80.4322917 720.943604,81.8710938 L720.943604,81.8710938 L720.81665,81.8710938 C720.81665,81.3632812 720.985921,80.0514323 721.324463,77.9355469 C720.922445,75.735026 719.949137,74.6347656 718.404541,74.6347656 L718.404541,74.6347656 L717.642822,74.6347656 C716.94458,74.6347656 716.267497,74.9733073 715.611572,75.6503906 C715.10376,75.6503906 714.55363,77.8932292 713.961182,82.3789062 C699.361572,83.3945312 685.396729,84.6217448 672.06665,86.0605469 C670.0354,86.6741536 669.019775,87.6051432 669.019775,88.8535156 L669.019775,88.8535156 L669.019775,90.25 C669.781494,91.8580729 670.712484,92.6621094 671.812744,92.6621094 L671.812744,92.6621094 L671.939697,92.6621094 C688.50708,91.0540365 702.260335,89.8268229 713.199463,88.9804688 C713.199463,89.4036458 713.157145,89.6152344 713.07251,89.6152344 C710.533447,113.905599 708.290609,141.073568 706.343994,171.119141 L706.343994,171.119141 L706.343994,171.373047 C706.957601,173.235026 707.973226,174.166016 709.390869,174.166016 L709.390869,174.166016 L709.898682,174.166016 Z M739.669189,66.2558594 C740.177002,66.2558594 740.76945,66.0442708 741.446533,65.6210938 C741.996663,65.2402344 743.393148,62.6165365 745.635986,57.75 C746.990153,55.0628255 747.667236,53.3277995 747.667236,52.5449219 L747.667236,52.5449219 L747.667236,52.0371094 C747.667236,50.640625 746.736247,49.7096354 744.874268,49.2441406 L744.874268,49.2441406 L744.112549,49.2441406 C743.520101,49.2652995 743.223877,49.3499349 743.223877,49.4980469 C742.356364,49.4980469 741.086833,51.4446615 739.415283,55.3378906 C737.299398,59.6966146 736.241455,62.108724 736.241455,62.5742188 L736.241455,62.5742188 L736.241455,63.4628906 C736.241455,63.7379557 736.283773,63.9495443 736.368408,64.0976562 C737.003174,65.5364583 737.934163,66.2558594 739.161377,66.2558594 L739.161377,66.2558594 L739.669189,66.2558594 Z M735.828857,134.810547 C743.340251,134.810547 752.142334,129.859375 762.235107,119.957031 C764.435628,118.13737 765.535889,116.529297 765.535889,115.132812 L765.535889,115.132812 L765.535889,114.878906 C765.535889,113.376628 764.562581,112.40332 762.615967,111.958984 L762.615967,111.958984 L762.362061,111.958984 C761.007894,111.958984 759.61141,112.889974 758.172607,114.751953 C748.947347,123.723307 741.541748,128.208984 735.955811,128.208984 C735.278727,128.208984 734.940186,128.166667 734.940186,128.082031 C732.760824,128.082031 731.406657,127.151042 730.877686,125.289062 L730.877686,125.289062 L730.877686,125.035156 C731.53361,125.627604 732.168376,125.923828 732.781982,125.923828 L732.781982,125.923828 L733.543701,125.923828 C734.347738,125.923828 735.828857,125.119792 737.987061,123.511719 C744.250081,119.343424 747.381592,115.788737 747.381592,112.847656 C747.381592,112.255208 747.296956,111.789714 747.127686,111.451172 C746.30249,108.996745 743.975016,107.769531 740.145264,107.769531 C736.781006,107.769531 733.691813,108.869792 730.877686,111.070312 C726.392008,115.005859 724.14917,119.406901 724.14917,124.273438 C724.14917,125.542969 724.403076,126.854818 724.910889,128.208984 C726.815186,132.610026 730.454508,134.810547 735.828857,134.810547 Z M732.401123,119.322266 L732.27417,119.322266 C732.612712,118.899089 732.781982,118.602865 732.781982,118.433594 C735.172933,115.809896 737.161865,114.498047 738.748779,114.498047 L738.748779,114.498047 L738.875732,114.498047 C736.548258,116.508138 734.390055,118.116211 732.401123,119.322266 L732.401123,119.322266 Z M763.695068,140.555176 C765.810954,140.555176 768.984782,138.735514 773.216553,135.096191 C776.263428,132.070475 777.786865,129.065918 777.786865,126.08252 C777.786865,121.723796 775.036214,117.830566 769.534912,114.402832 C767.503662,113.493001 766.488037,112.350423 766.488037,110.975098 C766.488037,110.784668 766.530355,110.319173 766.61499,109.578613 C767.292074,107.97054 768.519287,107.166504 770.296631,107.166504 C770.614014,107.166504 771.714274,107.462728 773.597412,108.055176 L773.597412,108.055176 L774.613037,108.055176 C776.305745,107.441569 777.1521,106.510579 777.1521,105.262207 L777.1521,105.262207 L777.1521,104.500488 C777.1521,103.992676 776.940511,103.442546 776.517334,102.850098 C774.909261,101.32666 772.835693,100.564941 770.296631,100.564941 C769.365641,100.564941 768.265381,100.734212 766.99585,101.072754 C762.256266,102.892415 759.886475,106.108561 759.886475,110.721191 C759.886475,114.06429 761.325277,116.814941 764.202881,118.973145 C768.857829,121.554525 771.185303,123.839681 771.185303,125.828613 C771.185303,127.73291 769.492594,129.933431 766.107178,132.430176 C765.303141,132.17627 764.795329,132.049316 764.58374,132.049316 L764.58374,132.049316 L764.329834,132.049316 C763.420003,132.049316 762.700602,132.303223 762.171631,132.811035 C760.732829,134.419108 760.013428,135.85791 760.013428,137.127441 C760.098063,137.317871 760.182699,137.69873 760.267334,138.27002 C760.9021,139.793457 762.00236,140.555176 763.568115,140.555176 L763.568115,140.555176 L763.695068,140.555176 Z" id="path-1"></path>
        <filter x="-0.9%" y="-3.1%" width="101.8%" height="108.8%" filterUnits="objectBoundingBox" id="filter-2">
            <feOffset dx="0" dy="2" in="SourceAlpha" result="shadowOffsetOuter1"></feOffset>
            <feGaussianBlur stdDeviation="2" in="shadowOffsetOuter1" result="shadowBlurOuter1"></feGaussianBlur>
            <feColorMatrix values="0 0 0 0 0   0 0 0 0 0   0 0 0 0 0  0 0 0 0.426218313 0" type="matrix" in="shadowBlurOuter1"></feColorMatrix>
        </filter>
    </defs>
    <g id="Page-1" stroke="none" stroke-width="1" fill="none" fill-rule="evenodd">
        <g id="Desktop-HD-Copy-3-(1)" transform="translate(-275.000000, -312.000000)">
            <g id="Group-7" transform="translate(278.000000, 312.000000)">
                <g id="LesGîtesdesAoûtés" fill-rule="nonzero">
                    <use fill="black" fill-opacity="1" filter="url(#filter-2)" xlink:href="#path-1"></use>
                    <use fill="#FF0041" xlink:href="#path-1"></use>
                </g>
                <g id="Group-6" transform="translate(809.000000, 60.000000)" fill="#FF0041">
                    <path d="M24.9001944,83 C24.7446873,82.9882094 24.5475213,82.872269 24.5306866,82.6900768 C23.8008017,74.8510401 23.6056331,72.7430568 25.3824092,65.0488756 C26.2170118,61.430578 28.3070849,56.9167594 31.6691779,55.1001713 C33.0798702,54.3371538 34.5995602,54 36.1189649,54 C40.0137769,54 43.9274209,56.2082031 46.105377,59.1185058 C49.4540592,63.5930225 49.9776475,69.3788177 50.4390329,74.483287 C50.7072471,77.4595607 50.8593302,80.1362981 51,82.7139386 C42.638281,82.6782862 33.7946324,82.7734529 24.9001944,83" id="Fill-1"></path>
                    <path d="M26.5875352,64.9564173 C27.3895177,61.4147343 29.3823909,57.0050966 32.5709318,55.2497492 C33.8374123,54.5516669 35.2435512,54.1978367 36.7502893,54.1978367 C40.2487765,54.1978367 44.064516,56.1929209 46.2456612,59.1621652 C49.4743855,63.5582807 49.9835629,69.3009795 50.4331677,74.3678512 C50.6759543,77.1122893 50.8187038,79.543182 50.9606103,82.1653572 C42.7890435,82.1354957 34.3114643,82.2312778 25.7507083,82.4529851 C25.0425808,74.7013982 24.8576808,72.5910937 26.5875352,64.9564173 Z M74.7787045,32.8404062 C74.5873415,32.5031969 74.3942924,32.3102242 69.2645829,27.6456372 C61.4139215,20.5081824 46.8009231,7.22236363 41.5360511,0.911170094 C41.0827933,0.368311104 40.4525036,0.0463143084 39.7581452,0.00349408708 C39.0621008,-0.0325650467 38.3958428,0.21139753 37.8846983,0.692561596 C32.9696751,5.31601865 26.4327026,11.0294194 20.1112594,16.5549182 C9.05547784,26.2215831 2.75651488,31.7806057 1.85758633,33.628918 C0.585204799,36.25222 0.566939605,66.1673756 0.55099304,68.7410963 C0.523946148,73.0932647 3.15413411,73.0935464 3.1819534,68.7571538 C3.19544155,66.468244 3.21089671,36.87424 4.22194546,34.7963325 C4.92838697,33.3398815 13.9103665,25.4874417 21.8349317,18.5595807 L21.8711811,18.5277472 C28.164805,13.0259122 34.6711482,7.33730212 39.5996596,2.70849254 C45.0460594,9.19970004 59.6436026,22.4700247 67.5024132,29.6145223 L67.7398607,29.8305954 C70.0162659,31.9017418 72.1724018,33.8630207 72.5157875,34.1988214 C72.6132955,34.4055979 72.6439248,34.7374547 72.6731491,35.1445285 C73.5923099,48.0252454 73.40741,56.1470019 73.1932857,65.551393 L73.1924427,65.5919595 C73.0893146,70.0911816 72.9825334,74.7433733 72.9808474,80.3680347 C72.9808474,80.8435645 72.7965095,81.2841621 72.4618349,81.6081309 C72.1167632,81.942523 71.7017218,82.1025354 71.2242977,82.0740825 C65.8029071,81.8365993 59.7607809,81.6887005 53.2586528,81.6340484 C53.1215233,78.8470717 52.9838318,76.2671534 52.7446983,73.3300243 C52.3164497,68.0414452 51.7833871,61.4595265 48.3388525,56.3357489 C44.8799867,51.194787 37.8015214,47.9841155 31.9428902,51.5088958 C27.2372141,54.3426366 25.4862845,61.2335934 25.061689,63.278259 C23.3411077,71.5743952 23.5470829,74.039375 24.2302012,82.2070505 C24.3434454,83.5510984 25.4590272,84.5666701 26.8376279,84.5683604 C35.0271789,84.3353846 43.0711705,84.2350951 50.7537921,84.2703091 C50.8704084,86.57584 51.0058518,89.0509614 51.2286872,91.7824408 C51.2843258,92.4653107 51.8592579,93 52.5375991,93 C52.5693524,93 52.6030728,92.9983097 52.6471903,92.9952109 C53.3690869,92.935488 53.9086127,92.2943115 53.849883,91.5658043 C53.6380068,88.9495451 53.5022823,86.5271038 53.3896001,84.2883387 C59.7402677,84.3410188 65.700622,84.4880725 71.1194836,84.7258374 C72.3300445,84.7531634 73.4520894,84.3263698 74.2835773,83.5218004 C75.1400744,82.6935671 75.6118784,81.5734803 75.6118784,80.3683164 C75.6138454,74.7726713 75.7200645,70.1340018 75.8229116,65.6466117 C76.0398459,56.1667217 76.2269939,47.9796081 75.297998,34.9538095 C75.2595006,34.4106688 75.201052,33.5903235 74.7787045,32.8404062 Z" id="Fill-3" stroke="#FF0041" stroke-width="4"></path>
                </g>
                <path d="M769.536169,137.925162 C774.761336,136.240479 780.043352,134.747159 785.371079,133.453078 C790.676023,132.164399 796.025231,131.071808 801.405105,130.178156 C804.457507,129.671131 807.519601,129.229369 810.589361,128.851594 C811.137236,128.784231 811.143818,127.883228 810.589361,127.951416 C805.140126,128.621974 799.713746,129.48877 794.32418,130.558857 C788.927309,131.630293 783.567541,132.90292 778.258764,134.373435 C775.257136,135.204899 772.272214,136.100576 769.305447,137.057165 C768.773774,137.228574 769.000662,138.097846 769.536169,137.925162" id="Fill-1" stroke="#FF0041" stroke-width="6" fill="#FF0041" transform="translate(790.002739, 132.947736) rotate(6.000000) translate(-790.002739, -132.947736) "></path>
            </g>
        </g>
    </g>
</svg>