<?xml version="1.0" encoding="UTF-8"?>
<svg width="651px" height="527px" viewBox="0 0 651 527" version="1.1" xmlns="http://www.w3.org/2000/svg" xmlns:xlink="http://www.w3.org/1999/xlink">
    <title>1D57BBB3-31ED-4969-97CC-81DEB63D6AEB</title>
    <g id="Page-1" stroke="none" stroke-width="1" fill="none" fill-rule="evenodd">
        <g id="texte" transform="translate(430.000000, -249.000000)" fill="#FFFFFF">
            <g id="Group-2" transform="translate(-429.000000, 250.000000)">
                <polygon id="Path-2" points="374.595976 325.939393 425.906706 290 457.499065 296.606072 486.82916 317.501655 504.917969 365.831362 511 417.174342 511 475.521484 417.654146 474 367.470255 484 359 402.130498"></polygon>
                <path d="M364.067332,470 C363.191453,469.931591 362.081713,469.269087 361.986845,468.22667 C357.878821,423.353881 356.780112,411.287906 366.781893,367.244572 C371.481189,346.532644 383.247522,320.694958 402.173554,310.296442 C410.116027,305.929286 418.670954,304 427.225439,304 C449.151077,304 471.182616,316.640526 483.44403,333.297615 C502.296373,358.911345 505.243913,392.029661 507.841543,421.248688 C509.351496,438.285688 510.206635,453.60718 511,468.36308 C463.926284,468.158668 414.140214,468.703901 364.067332,470 M642.336174,185.864753 C641.448736,184.306553 639.46429,182.396393 611.321657,156.872157 C566.436017,116.167863 482.877224,40.3893752 452.719731,4.32944076 C450.556547,1.74644116 447.563838,0.217641399 444.284065,0.0168814299 C441.032207,-0.154478544 437.82118,0.98162128 435.358434,3.29372092 C407.295795,29.6226768 369.928801,62.2041718 333.779223,93.7201269 C272.707205,146.980319 235.031899,180.124613 230.105158,190.227292 C223.075645,204.68369 222.975652,220.999847 222.886074,235.405845 C222.576513,284.896537 222.256535,318.171032 221.948639,351.457287 C221.628662,384.751522 221.32035,418.047017 221,467.546949 C220.98079,470.381948 223.254799,472.704548 226.07627,472.724708 C228.908574,472.724708 231.192582,470.443268 231.212581,467.608269 C231.521726,418.117577 231.840454,384.841822 232.150016,351.556827 C232.468744,318.262592 232.777889,284.966677 233.097867,235.465485 C233.176611,222.175847 233.266605,207.096589 239.280355,194.772111 C243.528394,186.035693 292.812479,143.059619 340.46001,101.510706 C376.670001,69.9355306 414.117406,37.2834756 442.318785,10.8339798 C442.827916,10.3509798 443.306216,10.2514398 443.674524,10.2909198 C444.003668,10.3110798 444.483218,10.4412798 444.921521,10.9641797 C475.5269,47.5671741 559.41567,123.648062 604.49088,164.522456 C619.459426,178.104414 632.38353,189.826192 633.470955,190.982452 C634.388808,192.589792 634.607543,194.852751 634.807112,197.637351 C640.072581,271.224279 639.005155,317.598992 637.77899,371.290524 C637.190281,396.91556 636.581989,423.415876 636.57199,455.443811 C636.57199,458.81095 635.255415,461.93827 632.872247,464.240709 C630.499494,466.531809 627.47762,467.748969 624.02661,467.568369 C592.035076,466.170609 556.63253,465.335649 519.226789,465.043749 C518.468508,449.562972 517.651064,433.508054 516.185333,415.543817 C513.761334,385.696522 510.739877,348.541227 491.423715,319.880432 C472.295874,291.521196 433.274412,273.737139 401.013314,293.099136 C374.955536,308.751274 365.202046,347.174128 362.82846,358.573766 C353.075803,405.480619 354.242388,419.444776 358.121286,465.718269 C358.670415,472.212308 364.175033,476.957047 370.547508,476.966707 C417.926725,475.620608 465.076374,475.047308 509.503296,475.278308 C510.211997,489.382746 510.999025,504.049143 512.325184,520.275001 C512.544752,522.9588 514.77918,525 517.401915,525 C517.541489,525 517.690645,524.9895 517.830219,524.97984 C520.642524,524.74884 522.726546,522.2658 522.497395,519.430801 C521.210818,503.576643 520.423372,489.181566 519.735087,475.348448 C556.792935,475.629848 591.875921,476.474468 623.588307,477.862567 C629.640804,478.003267 635.514563,475.941908 639.933007,471.678908 C644.350618,467.416749 646.783782,461.64595 646.783782,455.443811 C646.794198,423.536416 647.40249,397.09658 647.990782,371.522364 C649.227363,317.568332 650.293539,270.972699 644.998073,196.892691 C644.779755,193.837611 644.470193,189.644752 642.336174,185.864753 Z M0.5,456 L234.5,456 C234.776142,456 235,456.223858 235,456.5 L235,469.5 C235,469.776142 234.776142,470 234.5,470 L0.5,470 C0.223857625,470 3.38176876e-17,469.776142 0,469.5 L0,456.5 C-3.38176876e-17,456.223858 0.223857625,456 0.5,456 Z" id="Fill-1" stroke="#FFFFFF"></path>
            </g>
        </g>
    </g>
</svg>