<?xml version="1.0" encoding="UTF-8"?>
<svg width="304px" height="54px" viewBox="0 0 304 54" version="1.1" xmlns="http://www.w3.org/2000/svg" xmlns:xlink="http://www.w3.org/1999/xlink">
    <title>225F7CDD-2A00-4D58-A31B-11C02C8275D4</title>
    <g id="Page-1" stroke="none" stroke-width="1" fill="none" fill-rule="evenodd">
        <g id="texte" transform="translate(-40.000000, -27.000000)" fill="#FFFFFF">
            <g id="Group-7" transform="translate(40.000000, 27.000000)">
                <path d="M8.18267742,41.0071942 C8.87182135,41.0071942 9.27805356,40.5899281 9.40137405,39.7553957 C11.2874522,20.8992806 12.2304912,9.57553957 12.2304912,5.78417266 C12.2014747,4.54676259 12.1434415,3.69784173 12.0563917,3.23741007 C11.8097507,2.02877698 11.3164688,1.42446043 10.5765458,1.42446043 L10.5765458,1.42446043 L10.489496,1.42446043 C10.2718716,1.42446043 10.0687555,1.4676259 9.88014773,1.55395683 C9.21276624,1.97841727 8.87907549,2.42446043 8.87907549,2.89208633 L8.87907549,2.89208633 L8.87907549,3.15107914 C9.04592087,3.78417266 9.35059503,4.10071942 9.79309797,4.10071942 C9.90916432,4.10071942 9.96719749,4.63309353 9.96719749,5.69784173 L9.96691023,5.82283813 C9.94795079,10.0200108 8.99049919,21.3740288 7.09455542,39.8848921 C7.09455542,39.9064748 7.10906371,39.9928058 7.1380803,40.1438849 C7.3557047,40.7194245 7.70390374,41.0071942 8.18267742,41.0071942 Z M1.13164688,47.2661871 L8.92260037,45.2805755 C19.0566432,42.7194245 26.9491548,41.4388489 32.600135,41.4388489 C34.8924454,41.5179856 36.0386005,41.676259 36.0386005,41.9136691 C36.0386005,42.5827338 36.4013079,42.971223 37.1267225,43.0791367 C37.9682035,42.9496403 38.388944,42.4748201 38.388944,41.6546763 L38.388944,41.6546763 L38.388944,41.5251799 C38.388944,41.352518 38.3454192,41.1366906 38.2583694,40.8776978 C37.7215626,39.7841727 36.0676171,39.2374101 33.2965331,39.2374101 L33.2965331,39.2374101 L32.0778365,39.2374101 C29.480852,39.2374101 26.2600109,39.5251799 22.4153131,40.1007194 C15.037846,41.4532374 7.94329058,43.0791367 1.13164688,44.9784173 C0.377215626,45.1654676 0,45.5107914 0,46.0143885 L0,46.0143885 L0,46.2733813 C0,46.7985612 0.377215626,47.1294964 1.13164688,47.2661871 L1.13164688,47.2661871 Z M24.0692586,33.4532374 C26.6444806,33.4532374 29.6622056,31.7697842 33.1224336,28.4028777 C33.8768648,27.7841727 34.2540805,27.2374101 34.2540805,26.7625899 L34.2540805,26.7625899 L34.2540805,26.676259 C34.2540805,26.1654676 33.9203897,25.8345324 33.2530082,25.6834532 L33.2530082,25.6834532 L33.1659585,25.6834532 C32.7016931,25.6834532 32.2229194,26 31.7296374,26.6330935 C28.5668295,29.6834532 26.0278782,31.2086331 24.1127834,31.2086331 C23.8806508,31.2086331 23.7645844,31.1942446 23.7645844,31.1654676 C23.0174073,31.1654676 22.5531419,30.8489209 22.3717883,30.2158273 L22.3717883,30.2158273 L22.3717883,30.1294964 C22.5966668,30.3309353 22.8142912,30.4316547 23.0246615,30.4316547 L23.0246615,30.4316547 L23.2858107,30.4316547 C23.5614683,30.4316547 24.0692586,30.1582734 24.8091815,29.6115108 C26.9564089,28.1942446 28.0300226,26.9856115 28.0300226,25.9856115 C28.0300226,25.7841727 28.001006,25.6258993 27.9429729,25.5107914 C27.6600612,24.676259 26.862105,24.2589928 25.5491045,24.2589928 C24.3956952,24.2589928 23.3365898,24.6330935 22.3717883,25.381295 C20.8339092,26.7194245 20.0649696,28.2158273 20.0649696,29.8705036 C20.0649696,30.3021583 20.1520194,30.7482014 20.3261189,31.2086331 C20.9789921,32.705036 22.2267053,33.4532374 24.0692586,33.4532374 Z M22.8940868,28.1870504 L22.8505619,28.1870504 C22.9666283,28.0431655 23.0246615,27.942446 23.0246615,27.8848921 C23.84438,26.9928058 24.5262698,26.5467626 25.0703308,26.5467626 L25.0703308,26.5467626 L25.1138557,26.5467626 C24.3158996,27.2302158 23.5759766,27.7769784 22.8940868,28.1870504 L22.8940868,28.1870504 Z M33.6229697,35.4064748 C34.3483844,35.4064748 35.4365064,34.7877698 36.8873357,33.5503597 C37.9319328,32.5215827 38.4542314,31.5 38.4542314,30.4856115 C38.4542314,29.0035971 37.5111923,27.6798561 35.6251142,26.5143885 C34.9287161,26.205036 34.5805171,25.8165468 34.5805171,25.3489209 C34.5805171,25.2841727 34.5950253,25.1258993 34.6240419,24.8741007 C34.8561746,24.3273381 35.2769151,24.0539568 35.8862635,24.0539568 C35.9950757,24.0539568 36.3722913,24.1546763 37.0179103,24.3561151 L37.0179103,24.3561151 L37.3661094,24.3561151 C37.9464411,24.147482 38.236607,23.8309353 38.236607,23.4064748 L38.236607,23.4064748 L38.236607,23.147482 C38.236607,22.9748201 38.1640655,22.7877698 38.0189826,22.5863309 C37.4676674,22.0683453 36.756761,21.8093525 35.8862635,21.8093525 C35.567081,21.8093525 35.1898654,21.8669065 34.7546166,21.9820144 C33.1296877,22.6007194 32.3172233,23.6942446 32.3172233,25.2625899 C32.3172233,26.3992806 32.8105053,27.3345324 33.7970692,28.0683453 C35.3929815,28.9460432 36.1909376,29.7230216 36.1909376,30.3992806 C36.1909376,31.0467626 35.6106059,31.794964 34.4499424,32.6438849 C34.1742848,32.557554 34.0001853,32.5143885 33.9276439,32.5143885 L33.9276439,32.5143885 L33.8405941,32.5143885 C33.5286658,32.5143885 33.2820248,32.6007194 33.1006711,32.7733813 C32.6073892,33.3201439 32.3607482,33.8093525 32.3607482,34.2410072 C32.3897648,34.3057554 32.4187814,34.4352518 32.4477979,34.6294964 C32.6654223,35.147482 33.042638,35.4064748 33.5794448,35.4064748 L33.5794448,35.4064748 L33.6229697,35.4064748 Z M67.376514,54 C70.3869849,54 73.114544,51.9568345 75.5591915,47.8705036 C76.6908383,45.9496403 77.764452,43.3021583 78.7800326,39.9280576 C79.3023311,38.0503597 79.7520882,35.8345324 80.1293038,33.2805755 C82.6174761,31.647482 85.2434772,30.0935252 88.0073071,28.618705 C89.2550203,28.1294964 89.8788769,27.5971223 89.8788769,27.0215827 C89.8788769,26.3669065 89.487153,25.9928058 88.7037052,25.8992806 L88.7037052,25.8992806 L88.6601803,25.8992806 C88.3772686,25.8992806 87.2891466,26.4316547 85.3958143,27.4964029 C83.8144103,28.3453237 82.1459566,29.323741 80.3904531,30.4316547 C80.4194697,29.9568345 80.433978,29.5971223 80.433978,29.352518 L80.433978,29.352518 L80.433978,29.3093525 C80.433978,28.618705 80.4049614,27.942446 80.3469282,27.2805755 C80.085779,25.1798561 79.345856,24.1294964 78.1271594,24.1294964 C77.1913744,24.1294964 76.2048105,24.705036 75.1674675,25.8561151 C74.101108,27.1007194 73.0420026,28.5107914 71.9901513,30.0863309 C68.2252492,35.8992806 65.396132,38.8057554 63.5027997,38.8057554 C62.7773851,38.8057554 62.0664787,38.705036 61.3700806,38.5035971 C59.2518698,37.676259 58.1927644,35.7338129 58.1927644,32.676259 L58.1927644,32.676259 L58.1927644,32.2446043 C58.1927644,28.6618705 59.4694942,24.3021583 62.0229538,19.1654676 C63.1981256,16.8057554 64.7360047,14.4604317 66.6365911,12.1294964 C69.8429239,8.41726619 72.7010577,6.56115108 75.2109924,6.56115108 C75.6027163,6.56115108 75.9654237,6.63309353 76.2991144,6.77697842 C77.1115788,7.30935252 77.517811,8.46043165 77.517811,10.2302158 C77.4887945,10.8848921 77.4452696,11.5035971 77.3872364,12.0863309 C77.1551037,13.705036 76.9664959,14.6402878 76.821413,14.8920863 C76.3426393,14.8920863 76.0234568,15.2086331 75.8638656,15.8417266 L75.8638656,15.8417266 L75.8638656,16.1438849 C76.1975564,17.352518 76.7198549,17.9568345 77.4307613,17.9568345 C77.8297394,17.9568345 78.1924467,17.7553957 78.5188833,17.352518 C79.3313477,14.7410072 79.7375799,12.4964029 79.7375799,10.618705 L79.7375799,10.618705 L79.7375799,9.84172662 C79.7375799,9.0647482 79.6360219,8.30215827 79.4329058,7.55395683 C78.7147452,5.39568345 77.3509657,4.31654676 75.3415671,4.31654676 C71.8958474,4.31654676 68.2977907,6.57553957 64.5473968,11.0935252 C62.5815231,13.618705 60.9565943,16.1798561 59.6726103,18.7769784 C57.1771839,24 55.9294706,28.5179856 55.9294706,32.3309353 L55.9294706,32.3309353 L55.9294706,32.5467626 C55.9294706,33.7697842 56.0890619,34.9640288 56.4082443,36.1294964 C57.5906702,39.4100719 59.9265054,41.0503597 63.41575,41.0503597 C64.8303086,41.0503597 66.3391711,40.3453237 67.9423375,38.9352518 C68.7693102,38.1151079 69.6107912,37.1942446 70.4667805,36.1726619 C71.8087976,34.323741 73.5933177,31.7913669 75.8203407,28.5755396 C76.4441973,27.7338129 77.1115788,27.0431655 77.8224852,26.5035971 L77.8224852,26.5035971 L77.909535,26.5035971 C78.0836345,27.2014388 78.1706842,28.0359712 78.1706842,29.0071942 C78.1706842,30.0431655 78.1126511,31.0359712 77.9965847,31.9856115 C76.5022305,33.0359712 75.1964841,34.028777 74.0793455,34.9640288 C73.5280304,35.2877698 72.1787591,36.5683453 70.0315317,38.8057554 C67.6086467,41.5971223 65.9547013,43.8273381 65.0696954,45.4964029 C63.9380485,47.5827338 63.3722251,49.2374101 63.3722251,50.4604317 L63.3722251,50.4604317 L63.3722251,50.7194245 C63.3722251,50.9496403 63.4012417,51.2086331 63.4592749,51.4964029 C63.9162861,53.1654676 65.1349827,54 67.1153648,54 L67.1153648,54 L67.376514,54 Z M67.3329892,51.7553957 L66.9847901,51.7553957 C66.0852759,51.7553957 65.6355188,51.3956835 65.6355188,50.676259 L65.6355188,50.676259 L65.6355188,50.5467626 C65.6355188,49.7482014 66.0127345,48.5971223 66.7671657,47.0935252 C67.8770502,44.9136691 69.850178,42.3093525 72.6865494,39.2805755 C74.7322187,37.2805755 76.3571476,35.8848921 77.5613359,35.0935252 L77.5613359,35.0935252 L77.3437115,36.2158273 C76.6908383,39.1079137 76.0379651,41.3669065 75.3850919,42.9928058 C72.9767152,48.8345324 70.292681,51.7553957 67.3329892,51.7553957 L67.3329892,51.7553957 Z M88.8669235,14.147482 C89.0337688,14.147482 89.2513932,14.0611511 89.5197967,13.8884892 C89.7301669,13.6223022 90.8618138,11.7086331 92.9147373,8.14748201 L92.9147373,8.14748201 L92.9582622,8.14748201 C94.1769588,10.8741007 94.829832,12.3129496 94.9168818,12.4640288 C95.2578267,13.557554 95.7075838,14.1043165 96.2661531,14.1043165 L96.2661531,14.1043165 L96.6143521,14.1043165 C97.1946838,13.8956835 97.4848497,13.5503597 97.4848497,13.0683453 L97.4848497,13.0683453 L97.4848497,12.8956835 C97.4848497,12.7158273 96.5418106,10.557554 94.6557325,6.42086331 C94.2495003,5.18345324 93.7707266,4.5647482 93.2194115,4.5647482 L93.2194115,4.5647482 L92.9582622,4.5647482 C92.798671,4.5647482 92.5810466,4.65107914 92.305389,4.82374101 C91.9644441,5.3057554 90.8763221,7.14748201 89.041023,10.3489209 C88.1124922,11.8165468 87.6482268,12.6798561 87.6482268,12.9388489 L87.6482268,12.9388489 L87.6482268,13.2841727 C87.8513429,13.8597122 88.1705254,14.147482 88.6057742,14.147482 L88.6057742,14.147482 L88.8669235,14.147482 Z M89.2477662,33.0215827 C90.0021974,32.8920863 90.379413,32.5323741 90.379413,31.942446 L90.379413,31.942446 L90.379413,31.8561151 C90.2053135,31.3021583 90.1182638,30.9568345 90.1182638,30.8201439 C90.1182638,29.5539568 90.3068716,27.3956835 90.6840872,24.3453237 C90.524496,23.6258993 90.1908052,23.2661871 89.683015,23.2661871 L89.683015,23.2661871 L89.4218657,23.2661871 C89.1824789,23.2661871 88.9503462,23.381295 88.7254676,23.6115108 C88.399031,23.6115108 88.1088651,25.971223 87.85497,30.6906475 C87.8839866,30.9856115 87.8984949,31.2158273 87.8984949,31.381295 C87.8984949,32.323741 88.348252,32.8705036 89.2477662,33.0215827 Z M93.491442,46.8345324 C93.9049283,46.8345324 94.2386191,46.5755396 94.4925142,46.057554 C95.3630118,33.5251799 96.1754762,24.0863309 96.9299075,17.7410072 C102.051335,17.3956835 110.480653,16.9784173 122.217863,16.4892086 C122.471758,16.6330935 122.70389,16.7194245 122.914261,16.7482014 C123.958858,16.5611511 124.481156,16.1151079 124.481156,15.4100719 C124.481156,14.8561151 124.147466,14.4676259 123.480084,14.2446043 L123.480084,14.2446043 L123.393034,14.2446043 C113.897356,14.5611511 105.19238,14.9640288 97.2781065,15.4532374 L97.2781065,15.4532374 L97.2345816,15.4532374 C97.2345816,15.2805755 97.2926148,14.8345324 97.4086811,14.1151079 C97.2708524,13.3669065 96.9371616,12.9928058 96.4076089,12.9928058 L96.4076089,12.9928058 L96.1464596,12.9928058 C95.9070728,12.9928058 95.6749401,13.1079137 95.4500616,13.3381295 C95.275962,13.3381295 95.0873542,14.1007194 94.8842381,15.6258993 C89.8788769,15.971223 85.0911401,16.3884892 80.5210278,16.8776978 C79.8246297,17.0863309 79.4764306,17.4028777 79.4764306,17.8273381 L79.4764306,17.8273381 L79.4764306,18.3021583 C79.7375799,18.8489209 80.0567624,19.1223022 80.433978,19.1223022 L80.433978,19.1223022 L80.4775029,19.1223022 C86.1574997,18.5755396 90.872695,18.1582734 94.6230888,17.8705036 C94.6230888,18.0143885 94.6085805,18.0863309 94.579564,18.0863309 C93.7090664,26.3453237 92.9401268,35.5827338 92.2727453,45.7985612 L92.2727453,45.7985612 L92.2727453,45.8848921 C92.4831156,46.5179856 92.8313146,46.8345324 93.3173424,46.8345324 L93.3173424,46.8345324 L93.491442,46.8345324 Z M102.381399,33.4532374 C104.956621,33.4532374 107.974346,31.7697842 111.434574,28.4028777 C112.189005,27.7841727 112.566221,27.2374101 112.566221,26.7625899 L112.566221,26.7625899 L112.566221,26.676259 C112.566221,26.1654676 112.23253,25.8345324 111.565148,25.6834532 L111.565148,25.6834532 L111.478099,25.6834532 C111.013833,25.6834532 110.53506,26 110.041778,26.6330935 C106.87897,29.6834532 104.340018,31.2086331 102.424924,31.2086331 C102.192791,31.2086331 102.076725,31.1942446 102.076725,31.1654676 C101.329547,31.1654676 100.865282,30.8489209 100.683928,30.2158273 L100.683928,30.2158273 L100.683928,30.1294964 C100.908807,30.3309353 101.126431,30.4316547 101.336802,30.4316547 L101.336802,30.4316547 L101.597951,30.4316547 C101.873608,30.4316547 102.381399,30.1582734 103.121322,29.6115108 C105.268549,28.1942446 106.342163,26.9856115 106.342163,25.9856115 C106.342163,25.7841727 106.313146,25.6258993 106.255113,25.5107914 C105.972201,24.676259 105.174245,24.2589928 103.861245,24.2589928 C102.707835,24.2589928 101.64873,24.6330935 100.683928,25.381295 C99.1460493,26.7194245 98.3771097,28.2158273 98.3771097,29.8705036 C98.3771097,30.3021583 98.4641595,30.7482014 98.638259,31.2086331 C99.2911322,32.705036 100.538845,33.4532374 102.381399,33.4532374 Z M101.206227,28.1870504 L101.162702,28.1870504 C101.278768,28.0431655 101.336802,27.942446 101.336802,27.8848921 C102.15652,26.9928058 102.83841,26.5467626 103.382471,26.5467626 L103.382471,26.5467626 L103.425996,26.5467626 C102.62804,27.2302158 101.888117,27.7769784 101.206227,28.1870504 L101.206227,28.1870504 Z M111.93511,35.4064748 C112.660524,35.4064748 113.748646,34.7877698 115.199476,33.5503597 C116.244073,32.5215827 116.766371,31.5 116.766371,30.4856115 C116.766371,29.0035971 115.823332,27.6798561 113.937254,26.5143885 C113.240856,26.205036 112.892657,25.8165468 112.892657,25.3489209 C112.892657,25.2841727 112.907165,25.1258993 112.936182,24.8741007 C113.168315,24.3273381 113.589055,24.0539568 114.198404,24.0539568 C114.307216,24.0539568 114.684431,24.1546763 115.33005,24.3561151 L115.33005,24.3561151 L115.678249,24.3561151 C116.258581,24.147482 116.548747,23.8309353 116.548747,23.4064748 L116.548747,23.4064748 L116.548747,23.147482 C116.548747,22.9748201 116.476206,22.7877698 116.331123,22.5863309 C115.779808,22.0683453 115.068901,21.8093525 114.198404,21.8093525 C113.879221,21.8093525 113.502005,21.8669065 113.066757,21.9820144 C111.441828,22.6007194 110.629363,23.6942446 110.629363,25.2625899 C110.629363,26.3992806 111.122645,27.3345324 112.109209,28.0683453 C113.705122,28.9460432 114.503078,29.7230216 114.503078,30.3992806 C114.503078,31.0467626 113.922746,31.794964 112.762083,32.6438849 C112.486425,32.557554 112.312325,32.5143885 112.239784,32.5143885 L112.239784,32.5143885 L112.152734,32.5143885 C111.840806,32.5143885 111.594165,32.6007194 111.412811,32.7733813 C110.919529,33.3201439 110.672888,33.8093525 110.672888,34.2410072 C110.701905,34.3057554 110.730921,34.4352518 110.759938,34.6294964 C110.977562,35.147482 111.354778,35.4064748 111.891585,35.4064748 L111.891585,35.4064748 L111.93511,35.4064748 Z M141.978158,44.3741007 C142.355374,44.3381295 142.543982,44.2805755 142.543982,44.2014388 C142.957468,44.2014388 143.204109,43.4244604 143.283905,41.8705036 C144.589651,30.1366906 146.054989,18.5107914 147.679917,6.99280576 C147.505818,6.27338129 147.157619,5.91366906 146.63532,5.91366906 L146.63532,5.91366906 L146.461221,5.91366906 C146.308884,5.91366906 146.105768,5.98561151 145.851872,6.1294964 C145.503673,6.51079137 145.329574,7.01438849 145.329574,7.64028777 C143.973048,15.0431655 142.580252,20.4388489 141.151185,23.8273381 L141.151185,23.8273381 L140.715937,23.7841727 C139.859947,23.8705036 138.423626,24.5611511 136.406974,25.8561151 C134.491879,27.381295 133.534331,28.8489209 133.534331,30.2589928 C133.563348,30.5899281 133.621381,30.8776978 133.708431,31.1223022 C134.121917,32.0719424 134.890857,32.5467626 136.01525,32.5467626 C138.670267,32.5467626 141.006102,30.028777 143.022755,24.9928058 L143.022755,24.9928058 L143.06628,24.9928058 L143.06628,25.0359712 C142.253816,31.1079137 141.542909,37.2086331 140.933561,43.3381295 C140.933561,43.8561151 141.28176,44.2014388 141.978158,44.3741007 Z M136.145824,30.3453237 L135.7541,30.3453237 C135.7541,29.9064748 136.01525,29.3453237 136.537548,28.6618705 C137.632924,27.6043165 138.779079,26.8273381 139.976014,26.3309353 L139.976014,26.3309353 L140.019539,26.3309353 C138.597726,29.0071942 137.306488,30.3453237 136.145824,30.3453237 L136.145824,30.3453237 Z M150.345816,33.4532374 C152.921038,33.4532374 155.938763,31.7697842 159.398991,28.4028777 C160.153423,27.7841727 160.530638,27.2374101 160.530638,26.7625899 L160.530638,26.7625899 L160.530638,26.676259 C160.530638,26.1654676 160.196947,25.8345324 159.529566,25.6834532 L159.529566,25.6834532 L159.442516,25.6834532 C158.978251,25.6834532 158.499477,26 158.006195,26.6330935 C154.843387,29.6834532 152.304436,31.2086331 150.389341,31.2086331 C150.157208,31.2086331 150.041142,31.1942446 150.041142,31.1654676 C149.293965,31.1654676 148.8297,30.8489209 148.648346,30.2158273 L148.648346,30.2158273 L148.648346,30.1294964 C148.873225,30.3309353 149.090849,30.4316547 149.301219,30.4316547 L149.301219,30.4316547 L149.562368,30.4316547 C149.838026,30.4316547 150.345816,30.1582734 151.085739,29.6115108 C153.232967,28.1942446 154.30658,26.9856115 154.30658,25.9856115 C154.30658,25.7841727 154.277564,25.6258993 154.219531,25.5107914 C153.936619,24.676259 153.138663,24.2589928 151.825662,24.2589928 C150.672253,24.2589928 149.613147,24.6330935 148.648346,25.381295 C147.110467,26.7194245 146.341527,28.2158273 146.341527,29.8705036 C146.341527,30.3021583 146.428577,30.7482014 146.602677,31.2086331 C147.25555,32.705036 148.503263,33.4532374 150.345816,33.4532374 Z M149.170645,28.1870504 L149.12712,28.1870504 C149.243186,28.0431655 149.301219,27.942446 149.301219,27.8848921 C150.120938,26.9928058 150.802828,26.5467626 151.346889,26.5467626 L151.346889,26.5467626 L151.390413,26.5467626 C150.592457,27.2302158 149.852534,27.7769784 149.170645,28.1870504 L149.170645,28.1870504 Z M159.899527,35.4064748 C160.624942,35.4064748 161.713064,34.7877698 163.163893,33.5503597 C164.208491,32.5215827 164.730789,31.5 164.730789,30.4856115 C164.730789,29.0035971 163.78775,27.6798561 161.901672,26.5143885 C161.205274,26.205036 160.857075,25.8165468 160.857075,25.3489209 C160.857075,25.2841727 160.871583,25.1258993 160.9006,24.8741007 C161.132732,24.3273381 161.553473,24.0539568 162.162821,24.0539568 C162.271633,24.0539568 162.648849,24.1546763 163.294468,24.3561151 L163.294468,24.3561151 L163.642667,24.3561151 C164.222999,24.147482 164.513165,23.8309353 164.513165,23.4064748 L164.513165,23.4064748 L164.513165,23.147482 C164.513165,22.9748201 164.440623,22.7877698 164.29554,22.5863309 C163.744225,22.0683453 163.033319,21.8093525 162.162821,21.8093525 C161.843639,21.8093525 161.466423,21.8669065 161.031174,21.9820144 C159.406245,22.6007194 158.593781,23.6942446 158.593781,25.2625899 C158.593781,26.3992806 159.087063,27.3345324 160.073627,28.0683453 C161.669539,28.9460432 162.467495,29.7230216 162.467495,30.3992806 C162.467495,31.0467626 161.887164,31.794964 160.7265,32.6438849 C160.450843,32.557554 160.276743,32.5143885 160.204202,32.5143885 L160.204202,32.5143885 L160.117152,32.5143885 C159.805224,32.5143885 159.558583,32.6007194 159.377229,32.7733813 C158.883947,33.3201439 158.637306,33.8093525 158.637306,34.2410072 C158.666322,34.3057554 158.695339,34.4352518 158.724356,34.6294964 C158.94198,35.147482 159.319196,35.4064748 159.856003,35.4064748 L159.856003,35.4064748 L159.899527,35.4064748 Z M193.620428,49.1223022 C193.925102,49.1223022 194.215268,48.9352518 194.490926,48.5611511 C197.131435,39.2374101 199.423745,31.5683453 201.367857,25.5539568 C201.440398,25.4748201 202.049747,25.3165468 203.195902,25.0791367 C208.622003,24.1294964 211.929894,23.6546763 213.119574,23.6546763 C212.858425,27.0215827 212.72785,29.942446 212.72785,32.4172662 C212.72785,35.6834532 213.003508,38.3597122 213.554823,40.4460432 C214.541387,43.6115108 216.209841,45.1942446 218.560184,45.1942446 L218.560184,45.1942446 L218.908383,45.1942446 C219.633798,45.0359712 219.996505,44.705036 219.996505,44.2014388 L219.996505,44.2014388 L219.996505,43.942446 C219.996505,43.5683453 219.735356,43.2517986 219.213057,42.9928058 C218.458626,42.9928058 217.863786,42.8776978 217.428537,42.647482 C215.803609,41.4820144 214.991144,38.1294964 214.991144,32.5899281 L214.991144,32.5899281 L214.991144,32.2877698 C214.991144,29.4964029 215.136227,26.5467626 215.426393,23.4388489 C215.571476,23.4388489 216.224349,23.4100719 217.385013,23.352518 C218.284527,23.2877698 218.734284,22.9568345 218.734284,22.3597122 L218.734284,22.3597122 L218.734284,22.1007194 C218.734284,21.5971223 218.371576,21.2661871 217.646162,21.1079137 C217.464808,21.1079137 216.76841,21.1366906 215.556968,21.1942446 C215.556968,21.1654676 215.571476,21.1510791 215.600492,21.1510791 C216.180824,14.3309353 216.47099,9.72661871 216.47099,7.3381295 C216.47099,6.73381295 216.441973,5.91366906 216.38394,4.87769784 C216.08652,1.62589928 215.041923,0 213.250149,0 C211.821082,0 210.31222,1.05035971 208.723561,3.15107914 C205.76387,7.32374101 202.746145,14.1294964 199.670386,23.5683453 C195.876468,24.5755396 190.871107,26.0143885 184.654303,27.8848921 C183.14544,28.0647482 182.391009,28.5539568 182.391009,29.352518 C182.391009,29.5323741 182.434534,29.7338129 182.521584,29.9568345 C182.906054,30.5035971 183.718518,30.7769784 184.958977,30.7769784 C185.684392,30.6043165 186.047099,30.2877698 186.047099,29.8273381 L186.047099,29.8273381 L188.049243,29.2230216 C192.873251,27.7841727 196.442291,26.7482014 198.756364,26.1151079 L198.756364,26.1151079 L198.799889,26.1151079 C196.942827,32.057554 195.724131,36.0863309 195.143799,38.2014388 C193.867069,42.4172662 192.938538,45.6978417 192.358207,48.0431655 C192.517798,48.7625899 192.851489,49.1223022 193.359279,49.1223022 L193.359279,49.1223022 L193.620428,49.1223022 Z M202.281879,23.0071942 L202.238354,23.0071942 C204.980422,14.7985612 207.620931,8.81294964 210.159882,5.05035971 C211.5019,3.17985612 212.502972,2.24460432 213.163099,2.24460432 C213.228386,2.24460432 213.28642,2.25899281 213.337199,2.28776978 C213.91753,2.89208633 214.207696,4.56115108 214.207696,7.29496403 C214.207696,9.95683453 213.903022,14.647482 213.293674,21.3669065 C212.822154,21.4244604 212.459447,21.4532374 212.205552,21.4532374 C208.05618,21.942446 204.748289,22.4604317 202.281879,23.0071942 L202.281879,23.0071942 Z M222.346849,33.1942446 C223.442225,33.1942446 224.443297,32.8489209 225.350066,32.1582734 C226.626795,30.8705036 227.26516,29.3453237 227.26516,27.5827338 L227.26516,27.5827338 L227.26516,27.4100719 L227.308685,27.323741 C227.279669,27.323741 227.26516,27.3093525 227.26516,27.2805755 L227.26516,27.2805755 L227.26516,26.9352518 C228.904597,26.8489209 230.935758,26.705036 233.358643,26.5035971 C234.287174,26.4028777 234.75144,26.028777 234.75144,25.381295 C234.620865,24.6330935 234.258158,24.2589928 233.663318,24.2589928 C230.406206,24.5755396 228.070371,24.7338129 226.655812,24.7338129 L226.655812,24.7338129 L226.438188,24.7338129 C226.198801,24.5539568 225.908635,24.4388489 225.56769,24.3884892 C225.125187,24.3884892 224.733463,24.5755396 224.392518,24.9496403 C224.145877,24.7482014 223.899236,24.647482 223.652595,24.647482 C223.028739,24.647482 222.172749,25.2086331 221.084627,26.3309353 C220.069047,27.7697842 219.561257,29.0647482 219.561257,30.2158273 L219.561257,30.2158273 L219.561257,30.647482 C219.561257,30.9352518 219.61929,31.2230216 219.735356,31.5107914 C220.243146,32.6330935 221.113644,33.1942446 222.346849,33.1942446 Z M222.433899,30.9928058 C221.969633,30.9928058 221.7375,30.8201439 221.7375,30.4748201 C221.7375,29.352518 222.274307,28.2446043 223.347921,27.1510791 C223.986286,26.8129496 224.348993,26.5827338 224.436043,26.4604317 C224.610143,26.6043165 224.711701,26.676259 224.740717,26.676259 C224.97285,26.7266187 225.088916,26.8705036 225.088916,27.1079137 L225.088916,27.1079137 L225.088916,27.1510791 C225.088916,27.7841727 225.016375,28.3309353 224.871292,28.7913669 C224.457805,30.2589928 223.645341,30.9928058 222.433899,30.9928058 Z M232.107303,14.147482 C232.274148,14.147482 232.491773,14.0611511 232.760176,13.8884892 C232.970547,13.6223022 234.102193,11.7086331 236.155117,8.14748201 L236.155117,8.14748201 L236.198642,8.14748201 C237.417338,10.8741007 238.070212,12.3129496 238.157261,12.4640288 C238.498206,13.557554 238.947963,14.1043165 239.506533,14.1043165 L239.506533,14.1043165 L239.854732,14.1043165 C240.435063,13.8956835 240.725229,13.5503597 240.725229,13.0683453 L240.725229,13.0683453 L240.725229,12.8956835 C240.725229,12.7158273 239.78219,10.557554 237.896112,6.42086331 C237.48988,5.18345324 237.011106,4.5647482 236.459791,4.5647482 L236.459791,4.5647482 L236.198642,4.5647482 C236.039051,4.5647482 235.821426,4.65107914 235.545769,4.82374101 C235.204824,5.3057554 234.116702,7.14748201 232.281403,10.3489209 C231.352872,11.8165468 230.888606,12.6798561 230.888606,12.9388489 L230.888606,12.9388489 L230.888606,13.2841727 C231.091723,13.8597122 231.410905,14.147482 231.846154,14.147482 L231.846154,14.147482 L232.107303,14.147482 Z M239.397721,36.7230216 C239.912765,36.7230216 240.246456,36.3776978 240.398793,35.6870504 L240.398793,35.6870504 L240.398793,35.471223 C240.07961,34.9028777 239.920019,33.8956835 239.920019,32.4496403 C240.036085,29.5935252 240.123135,27.0467626 240.181168,24.8093525 L240.181168,24.8093525 L240.181168,24.7230216 C239.970798,24.0899281 239.622599,23.7733813 239.136571,23.7733813 L239.136571,23.7733813 L238.918947,23.7733813 C238.585256,23.7733813 238.280582,23.9892086 238.004924,24.4208633 C237.134427,27.0755396 236.234913,29.2338129 235.306382,30.8956835 C234.93642,31.5791367 234.51568,32.1115108 234.04416,32.4928058 L234.04416,32.4928058 L234.000635,32.4928058 C233.652436,32.0539568 233.478337,31.2194245 233.478337,29.9892086 L233.478337,29.9892086 L233.478337,29.2553957 C233.478337,28.471223 233.565387,27.4064748 233.739486,26.0611511 C233.579895,25.3417266 233.246204,24.9820144 232.738414,24.9820144 L232.738414,24.9820144 L232.477265,24.9820144 C232.179845,24.9820144 231.918695,25.1402878 231.693817,25.4568345 C231.468938,25.4568345 231.309347,26.8093525 231.215043,29.5143885 L231.215043,29.5143885 L231.215043,29.9028777 C231.215043,31.0467626 231.345618,31.9964029 231.606767,32.7517986 C232.129066,34.1043165 232.912513,34.7805755 233.957111,34.7805755 C235.284619,34.7805755 236.517824,33.6007194 237.656725,31.2410072 L237.656725,31.2410072 L237.70025,31.2410072 L237.70025,31.2841727 C237.70025,31.4928058 237.685742,31.823741 237.656725,32.2769784 C237.656725,33.442446 237.743775,34.4352518 237.917875,35.2553957 C238.135499,36.2338129 238.556239,36.7230216 239.180096,36.7230216 L239.180096,36.7230216 L239.397721,36.7230216 Z M243.010286,46.8345324 C243.423772,46.8345324 243.757463,46.5755396 244.011358,46.057554 C244.881855,33.5251799 245.69432,24.0863309 246.448751,17.7410072 C251.570179,17.3956835 259.999497,16.9784173 271.736706,16.4892086 C271.990601,16.6330935 272.222734,16.7194245 272.433104,16.7482014 C273.477701,16.5611511 274,16.1151079 274,15.4100719 C274,14.8561151 273.666309,14.4676259 272.998928,14.2446043 L272.998928,14.2446043 L272.911878,14.2446043 C263.4162,14.5611511 254.711224,14.9640288 246.79695,15.4532374 L246.79695,15.4532374 L246.753425,15.4532374 C246.753425,15.2805755 246.811458,14.8345324 246.927525,14.1151079 C246.789696,13.3669065 246.456005,12.9928058 245.926452,12.9928058 L245.926452,12.9928058 L245.665303,12.9928058 C245.425916,12.9928058 245.193784,13.1079137 244.968905,13.3381295 C244.794806,13.3381295 244.606198,14.1007194 244.403082,15.6258993 C239.397721,15.971223 234.609984,16.3884892 230.039871,16.8776978 C229.343473,17.0863309 228.995274,17.4028777 228.995274,17.8273381 L228.995274,17.8273381 L228.995274,18.3021583 C229.256423,18.8489209 229.575606,19.1223022 229.952822,19.1223022 L229.952822,19.1223022 L229.996346,19.1223022 C235.676343,18.5755396 240.391539,18.1582734 244.141932,17.8705036 C244.141932,18.0143885 244.127424,18.0863309 244.098408,18.0863309 C243.22791,26.3453237 242.45897,35.5827338 241.791589,45.7985612 L241.791589,45.7985612 L241.791589,45.8848921 C242.001959,46.5179856 242.350158,46.8345324 242.836186,46.8345324 L242.836186,46.8345324 L243.010286,46.8345324 Z M253.21687,10.1438849 C253.390969,10.1438849 253.594085,10.0719424 253.826218,9.92805755 C254.014826,9.79856115 254.4936,8.90647482 255.262539,7.25179856 C255.726805,6.3381295 255.958937,5.74820144 255.958937,5.48201439 L255.958937,5.48201439 L255.958937,5.30935252 C255.958937,4.83453237 255.639755,4.51798561 255.00139,4.35971223 L255.00139,4.35971223 L254.740241,4.35971223 C254.537125,4.36690647 254.435566,4.39568345 254.435566,4.44604317 C254.138146,4.44604317 253.702898,5.10791367 253.12982,6.43165468 C252.404405,7.91366906 252.041698,8.73381295 252.041698,8.89208633 L252.041698,8.89208633 L252.041698,9.1942446 C252.041698,9.28776978 252.056206,9.35971223 252.085223,9.41007194 C252.302847,9.89928058 252.62203,10.1438849 253.04277,10.1438849 L253.04277,10.1438849 L253.21687,10.1438849 Z M251.900242,33.4532374 C254.475464,33.4532374 257.493189,31.7697842 260.953417,28.4028777 C261.707849,27.7841727 262.085064,27.2374101 262.085064,26.7625899 L262.085064,26.7625899 L262.085064,26.676259 C262.085064,26.1654676 261.751373,25.8345324 261.083992,25.6834532 L261.083992,25.6834532 L260.996942,25.6834532 C260.532677,25.6834532 260.053903,26 259.560621,26.6330935 C256.397813,29.6834532 253.858862,31.2086331 251.943767,31.2086331 C251.711634,31.2086331 251.595568,31.1942446 251.595568,31.1654676 C250.848391,31.1654676 250.384126,30.8489209 250.202772,30.2158273 L250.202772,30.2158273 L250.202772,30.1294964 C250.42765,30.3309353 250.645275,30.4316547 250.855645,30.4316547 L250.855645,30.4316547 L251.116794,30.4316547 C251.392452,30.4316547 251.900242,30.1582734 252.640165,29.6115108 C254.787393,28.1942446 255.861006,26.9856115 255.861006,25.9856115 C255.861006,25.7841727 255.83199,25.6258993 255.773957,25.5107914 C255.491045,24.676259 254.693089,24.2589928 253.380088,24.2589928 C252.226679,24.2589928 251.167573,24.6330935 250.202772,25.381295 C248.664893,26.7194245 247.895953,28.2158273 247.895953,29.8705036 C247.895953,30.3021583 247.983003,30.7482014 248.157103,31.2086331 C248.809976,32.705036 250.057689,33.4532374 251.900242,33.4532374 Z M250.72507,28.1870504 L250.681546,28.1870504 C250.797612,28.0431655 250.855645,27.942446 250.855645,27.8848921 C251.675364,26.9928058 252.357253,26.5467626 252.901314,26.5467626 L252.901314,26.5467626 L252.944839,26.5467626 C252.146883,27.2302158 251.40696,27.7769784 250.72507,28.1870504 L250.72507,28.1870504 Z M261.453953,35.4064748 C262.179368,35.4064748 263.26749,34.7877698 264.718319,33.5503597 C265.762916,32.5215827 266.285215,31.5 266.285215,30.4856115 C266.285215,29.0035971 265.342176,27.6798561 263.456098,26.5143885 C262.7597,26.205036 262.411501,25.8165468 262.411501,25.3489209 C262.411501,25.2841727 262.426009,25.1258993 262.455026,24.8741007 C262.687158,24.3273381 263.107899,24.0539568 263.717247,24.0539568 C263.826059,24.0539568 264.203275,24.1546763 264.848894,24.3561151 L264.848894,24.3561151 L265.197093,24.3561151 C265.777425,24.147482 266.067591,23.8309353 266.067591,23.4064748 L266.067591,23.4064748 L266.067591,23.147482 C266.067591,22.9748201 265.995049,22.7877698 265.849966,22.5863309 C265.298651,22.0683453 264.587745,21.8093525 263.717247,21.8093525 C263.398065,21.8093525 263.020849,21.8669065 262.5856,21.9820144 C260.960671,22.6007194 260.148207,23.6942446 260.148207,25.2625899 C260.148207,26.3992806 260.641489,27.3345324 261.628053,28.0683453 C263.223965,28.9460432 264.021921,29.7230216 264.021921,30.3992806 C264.021921,31.0467626 263.44159,31.794964 262.280926,32.6438849 C262.005269,32.557554 261.831169,32.5143885 261.758628,32.5143885 L261.758628,32.5143885 L261.671578,32.5143885 C261.359649,32.5143885 261.113008,32.6007194 260.931655,32.7733813 C260.438373,33.3201439 260.191732,33.8093525 260.191732,34.2410072 C260.220748,34.3057554 260.249765,34.4352518 260.278782,34.6294964 C260.496406,35.147482 260.873622,35.4064748 261.410428,35.4064748 L261.410428,35.4064748 L261.453953,35.4064748 Z" id="LesGîtesdesAoûtés" fill-rule="nonzero"></path>
                <g id="Group-6" transform="translate(277.000000, 8.000000)">
                    <path d="M8.51848756,28.5591398 C8.46528775,28.5550828 8.39783625,28.5151893 8.392077,28.4524995 C8.14237953,25.7551966 8.07561133,25.029869 8.68345579,22.3824088 C8.96897772,21.1374032 9.68400273,19.5842613 10.8341924,18.9591987 C11.3167977,18.6966551 11.8366917,18.5806452 12.356488,18.5806452 C13.6889237,18.5806452 15.0278019,19.340457 15.7728921,20.3418514 C16.918494,21.8814701 17.0976163,23.8722813 17.2554586,25.6286579 C17.3472161,26.6527521 17.3992446,27.57378 17.4473684,28.4607101 C14.5867803,28.4484426 11.5613216,28.4811881 8.51848756,28.5591398" id="Fill-1"></path>
                    <path d="M9.09573573,22.3505952 C9.37009818,21.1319516 10.0518706,19.6146569 11.1426872,19.0106664 C11.5759568,18.770466 12.0570044,18.648718 12.5724674,18.648718 C13.7693183,18.648718 15.0747028,19.3351986 15.8208841,20.3568741 C16.9254477,21.8695159 17.09964,23.8454983 17.2534521,25.588938 C17.3365107,26.5332608 17.385346,27.369697 17.433893,28.2719509 C14.638357,28.2616759 11.7381325,28.2946332 8.80945285,28.3709196 C8.56719869,25.7037069 8.50394344,24.9775806 9.09573573,22.3505952 Z M25.5821884,11.2999247 C25.5167221,11.1838957 25.450679,11.1174965 23.6957784,9.51247732 C21.0100258,7.0565789 16.0108421,2.48511437 14.2097017,0.313520893 C14.0546398,0.126730703 13.8390144,0.0159361061 13.6014707,0.00120226652 C13.3633503,-0.0112051773 13.1354199,0.0727389351 12.9605547,0.238300764 C11.2790994,1.82916771 9.04276667,3.79506903 6.88016768,5.69631593 C3.09792663,9.02248022 0.943018249,10.9352622 0.635490059,11.5712406 C0.200201642,12.4738821 0.193953023,22.767269 0.188497619,23.6528503 C0.179244735,25.1503706 1.07904588,25.1504676 1.08856301,23.6583755 C1.09317737,22.8707936 1.09846466,12.6879106 1.44434976,11.9729316 C1.68602712,11.4717872 4.75880958,8.76987242 7.46984505,6.38609227 L7.48224616,6.37513882 C9.63532802,4.4820343 11.8611823,2.5246631 13.547252,0.931954423 C15.410494,3.16548819 20.4043904,7.73162139 23.0929308,10.1899431 L23.1741629,10.2642909 C23.9529331,10.9769434 24.6905585,11.6517921 24.8080326,11.7673364 C24.8413906,11.8384853 24.851869,11.9526726 24.8618668,12.092741 C25.1763166,16.5248156 25.1130613,19.3193985 25.0398083,22.555318 L25.0395199,22.5692764 C25.0042392,24.1173958 24.9677088,25.7181499 24.967132,27.6535173 C24.967132,27.8171405 24.904069,27.9687439 24.7895751,28.0802171 C24.6715243,28.1952767 24.5295364,28.2503348 24.3662071,28.2405445 C22.5115209,28.1588299 20.4444777,28.10794 18.2200654,28.0891349 C18.1731527,27.1301752 18.1260477,26.2424614 18.0442389,25.2318363 C17.8977328,23.4121102 17.7153693,21.1473639 16.5369758,19.3843437 C15.3536797,17.6154106 12.9320994,16.5106634 10.9278308,17.723491 C9.31799431,18.6985416 8.71899207,21.0696236 8.57373571,21.7731644 C7.9851158,24.6277489 8.05558099,25.475914 8.28927935,28.286297 C8.32802078,28.748765 8.70966721,29.0982091 9.18129375,29.0987907 C11.9829823,29.0186269 14.7348741,28.9841187 17.3631394,28.9962354 C17.4030344,29.7895363 17.4493704,30.641191 17.5256035,31.5810549 C17.5446378,31.8160209 17.7413251,32 17.9733892,32 C17.9842521,32 17.9957881,31.9994184 18.0108809,31.9983521 C18.2578455,31.9778023 18.4424201,31.7571824 18.4223284,31.5065133 C18.3498444,30.6062951 18.3034124,29.7727669 18.2648632,29.0024391 C20.43746,29.0205656 22.4765286,29.0711647 24.3303497,29.1529763 C24.7444889,29.1623788 25.1283464,29.0155251 25.4128027,28.738684 C25.7058149,28.4537005 25.8672216,28.0682943 25.8672216,27.6536143 C25.8678945,25.728231 25.9042326,24.1321297 25.9394171,22.5880814 C26.0136315,19.3261838 26.0776558,16.5091125 25.7598414,12.0271172 C25.7466713,11.8402301 25.7266757,11.5579608 25.5821884,11.2999247 Z" id="Fill-3" stroke="#FFFFFF"></path>
                </g>
                <path d="M263.423428,34.8787661 C265.214475,34.3019671 267.024996,33.7906478 268.851172,33.3475043 C270.669539,32.9062104 272.503066,32.5320142 274.347092,32.2258919 C275.393345,32.0522094 276.442916,31.9008588 277.495111,31.7714039 C277.682901,31.74832 277.685211,31.440002 277.495165,31.4633687 C275.627378,31.6931537 273.767413,31.990089 271.920055,32.3565867 C270.070192,32.7235469 268.233035,33.1593508 266.413343,33.6628681 C265.384474,33.9475687 264.361327,34.2542415 263.344399,34.5817568 C263.162156,34.6404435 263.239871,34.9378894 263.423428,34.8787661" id="Fill-1" stroke="#FFFFFF" stroke-width="2" transform="translate(270.438724, 33.174302) rotate(6.000000) translate(-270.438724, -33.174302) "></path>
            </g>
        </g>
    </g>
</svg>